<svg xmlns="http://www.w3.org/2000/svg" width="103.524" height="49.652" viewBox="0 0 103.524 49.652"><defs><style>.a{fill:#2c6899;}.b{fill:#25486a;}.c{fill:#25496a;}</style></defs><g transform="translate(-83.23 -216.67)"><g transform="translate(83.23 216.67)"><path class="a" d="M101.622,231.84v11.448l-9.2,5.949-9.194-5.949V231.84l9.194,5.7.008,0Z" transform="translate(-83.23 -225.413)"/><path class="a" d="M101.622,262.48v11.448l-9.2,5.949-9.194-5.949V262.48l9.194,5.7v0h.008Z" transform="translate(-83.23 -243.071)"/><path class="a" d="M101.622,292.8v11.448l-9.2,5.949-9.194-5.949V292.8l9.194,5.961Z" transform="translate(-83.23 -260.545)"/><path class="a" d="M101.891,222.25l-8.635,5.44-.025-.013-8.6-5.427,8.6-5.58Z" transform="translate(-84.037 -216.67)"/></g><path class="b" d="M104.955,227.69l-.025-.013V216.67l8.66,5.58Z" transform="translate(-12.506)"/><path class="b" d="M114.128,231.84v11.448l-9.2,5.949V237.543l.008,0Z" transform="translate(-12.506 -8.743)"/><path class="b" d="M114.128,262.48v11.448l-9.2,5.949v-11.69h.008Z" transform="translate(-12.506 -26.401)"/><path class="b" d="M104.93,298.761l9.2-5.961v11.448l-9.2,5.949Z" transform="translate(-12.506 -43.875)"/><g transform="translate(105.605 224.314)"><path class="c" d="M141.53,248.83a3.264,3.264,0,0,0,1.4-.309,3.975,3.975,0,0,0,.877-.589v.9h.729l2.809-1.165-.25-.792-.246.093c-.572.216-.661.182-.788.072a.59.59,0,0,1-.144-.326,12.535,12.535,0,0,1-.064-1.792V234.73h-.669l-2.877,1.161.292.788.233-.085a1.737,1.737,0,0,1,.564-.136.327.327,0,0,1,.22.068c.021.017.085.085.136.318a12.274,12.274,0,0,1,.064,1.763v1.072a2.929,2.929,0,0,0-1.631-.453,3.848,3.848,0,0,0-3.19,1.631,5.744,5.744,0,0,0-1.216,3.534,4.637,4.637,0,0,0,1.114,3.195A3.456,3.456,0,0,0,141.53,248.83Zm-.775-2.449a4.262,4.262,0,0,1-.771-2.75,4,4,0,0,1,.792-2.69,1.678,1.678,0,0,1,1.288-.657,1.611,1.611,0,0,1,.784.233,1.728,1.728,0,0,1,.652.695,2.775,2.775,0,0,1,.309,1.047v4.33a2,2,0,0,1-1.4.708A2.1,2.1,0,0,1,140.754,246.381Z" transform="translate(-137.043 -234.723)"/><path class="c" d="M164.009,254.849a2.783,2.783,0,0,0,1.186-.258,9.222,9.222,0,0,0,1.343-.932,1.569,1.569,0,0,0,.305.775,1.145,1.145,0,0,0,.919.407c.729,0,1.449-.491,2.207-1.508l.051-.068v-1.208l-.424.424a6.376,6.376,0,0,1-.708.648.191.191,0,0,1-.225,0,.459.459,0,0,1-.072-.225,12.266,12.266,0,0,1-.042-1.466v-2.919a5.387,5.387,0,0,0-.186-1.75,2.021,2.021,0,0,0-.928-1.034,4.257,4.257,0,0,0-1.991-.415,3.8,3.8,0,0,0-2.474.733,2.155,2.155,0,0,0-.915,1.674,1.222,1.222,0,0,0,.284.835.975.975,0,0,0,.754.326,1,1,0,0,0,.758-.314,1.183,1.183,0,0,0,.288-.843l-.017-.534a.726.726,0,0,1,.275-.551,1.092,1.092,0,0,1,.771-.254,1.231,1.231,0,0,1,1,.39,2.509,2.509,0,0,1,.347,1.606v.165a20.313,20.313,0,0,0-3.046,1.33,3.959,3.959,0,0,0-1.424,1.284,2.287,2.287,0,0,0-.318,1.22,2.491,2.491,0,0,0,.644,1.775A2.133,2.133,0,0,0,164.009,254.849Zm-.225-2.906a1.4,1.4,0,0,1,.275-.843,3,3,0,0,1,.983-.792,15.1,15.1,0,0,1,1.462-.648v2.792a3.063,3.063,0,0,1-1.631.809.974.974,0,0,1-.746-.364A1.343,1.343,0,0,1,163.785,251.942Z" transform="translate(-150.845 -240.826)"/><path class="c" d="M187.081,255.273l3.114-7.533a2.22,2.22,0,0,1,.521-.843.963.963,0,0,1,.534-.14l.229-.017v-.826h-3.3v.843h.246a2.566,2.566,0,0,1,.572.038.285.285,0,0,1,.153.123s.013.013.013.051a2.034,2.034,0,0,1-.2.7l-1.784,4.377-1.771-4.2a1.749,1.749,0,0,1-.178-.682.354.354,0,0,1,.114-.3.557.557,0,0,1,.39-.114h.513v-.843H181.7v.805l.208.034a2.1,2.1,0,0,1,.555.136,1.32,1.32,0,0,1,.4.309,2.733,2.733,0,0,1,.356.665l3.135,7.41h.725Z" transform="translate(-162.354 -241.166)"/><path class="c" d="M210.692,237.114a1.146,1.146,0,0,0,.847-.356,1.171,1.171,0,0,0,.347-.852,1.158,1.158,0,0,0-.352-.847,1.22,1.22,0,0,0-1.7,0,1.2,1.2,0,0,0,0,1.7A1.178,1.178,0,0,0,210.692,237.114Z" transform="translate(-178.364 -234.712)"/><path class="c" d="M207.757,253.455a.591.591,0,0,1-.237.288,1.726,1.726,0,0,1-.725.089h-.246v.835h4.673v-.835h-.246a1.638,1.638,0,0,1-.716-.1.557.557,0,0,1-.242-.284,2.764,2.764,0,0,1-.1-.974V245.32h-.661l-2.911,1.161.309.792.229-.085c.377-.14.665-.161.775-.064a.5.5,0,0,1,.123.275,11.916,11.916,0,0,1,.081,1.763v3.313A2.747,2.747,0,0,1,207.757,253.455Z" transform="translate(-176.56 -240.826)"/><path class="c" d="M225.6,248.521a3.975,3.975,0,0,0,.877-.589v.9h.729l2.809-1.165-.25-.792-.246.093c-.572.216-.661.182-.788.072a.591.591,0,0,1-.144-.326,12.535,12.535,0,0,1-.064-1.792V234.73h-.669l-2.877,1.161.292.788.233-.085a1.737,1.737,0,0,1,.564-.136.326.326,0,0,1,.22.068c.021.017.085.085.136.318a12.27,12.27,0,0,1,.064,1.763v1.072a2.929,2.929,0,0,0-1.631-.453,3.848,3.848,0,0,0-3.19,1.631,5.744,5.744,0,0,0-1.216,3.534,4.637,4.637,0,0,0,1.114,3.195,3.448,3.448,0,0,0,2.644,1.263A3.574,3.574,0,0,0,225.6,248.521Zm-2.178-2.14a4.262,4.262,0,0,1-.771-2.75,4,4,0,0,1,.792-2.69,1.678,1.678,0,0,1,1.288-.657,1.611,1.611,0,0,1,.784.233,1.728,1.728,0,0,1,.652.695,2.775,2.775,0,0,1,.309,1.047v4.33a2,2,0,0,1-1.4.708A2.094,2.094,0,0,1,223.424,246.381Z" transform="translate(-184.687 -234.723)"/><path class="c" d="M263.861,250.688l-.1.237a4.087,4.087,0,0,1-.936,1.479,2.212,2.212,0,0,1-1.491.568,2.074,2.074,0,0,1-1.835-1.063,4.709,4.709,0,0,1-.716-2.585,3.485,3.485,0,0,1,.7-2.275,1.613,1.613,0,0,1,1.322-.606,1.127,1.127,0,0,1,.746.22,1,1,0,0,1,.3.682,1.641,1.641,0,0,0,.263.881,1.237,1.237,0,0,0,1.03.449,1.136,1.136,0,0,0,.814-.288,1,1,0,0,0,.305-.754,2.1,2.1,0,0,0-.907-1.585,3.434,3.434,0,0,0-2.241-.729,4.12,4.12,0,0,0-3.076,1.343,4.838,4.838,0,0,0-1.275,3.466,5.069,5.069,0,0,0,1.152,3.487,3.49,3.49,0,0,0,5.152.335,4.924,4.924,0,0,0,1.436-2.75l.038-.191Z" transform="translate(-205.612 -240.826)"/><path class="c" d="M281.571,253.744a.557.557,0,0,1-.241-.284,2.764,2.764,0,0,1-.1-.974V245.33h-.661l-2.911,1.161.309.792.229-.085c.377-.14.665-.161.775-.064a.5.5,0,0,1,.123.275,11.917,11.917,0,0,1,.081,1.763v3.313a2.627,2.627,0,0,1-.106.979.591.591,0,0,1-.237.288,1.725,1.725,0,0,1-.724.089h-.246v.835h4.673v-.835h-.246A1.666,1.666,0,0,1,281.571,253.744Z" transform="translate(-217.657 -240.831)"/><path class="c" d="M282.012,237.114a1.146,1.146,0,0,0,.847-.356,1.171,1.171,0,0,0,.347-.852,1.158,1.158,0,0,0-.352-.847,1.22,1.22,0,0,0-1.7,0,1.2,1.2,0,0,0,0,1.7A1.185,1.185,0,0,0,282.012,237.114Z" transform="translate(-219.467 -234.712)"/><path class="c" d="M295.518,249.112a.971.971,0,0,1-.36.458.63.63,0,0,1-.886-.051,1.627,1.627,0,0,1-.182-.97v-5.33H296.1v-1.152h-2.008V239.24h-.708l-.064.153a10.27,10.27,0,0,1-.58,1.267,5.335,5.335,0,0,1-.919,1.119,3.405,3.405,0,0,1-.983.652l-.157.064v.725h1.36v5.533a3.739,3.739,0,0,0,.22,1.474,1.723,1.723,0,0,0,.712.8,1.912,1.912,0,0,0,.97.271,2.247,2.247,0,0,0,1.39-.517,3.244,3.244,0,0,0,1.013-1.5l.119-.33h-.881Z" transform="translate(-225.161 -237.322)"/><path class="c" d="M310.833,245.92v.843h.246a1.357,1.357,0,0,1,.475.047.268.268,0,0,1,.127.085.26.26,0,0,1,.013.1,1.773,1.773,0,0,1-.14.669l-1.716,4.233-1.852-3.834a2.271,2.271,0,0,1-.284-.907.325.325,0,0,1,.127-.267.727.727,0,0,1,.47-.123h.445v-.843h-4.5v.792l.191.047a1.829,1.829,0,0,1,.6.22,1.676,1.676,0,0,1,.331.39,4.868,4.868,0,0,1,.428.686l3.042,6.389-.568,1.394a2.8,2.8,0,0,1-.606,1.034.765.765,0,0,1-.445.229,2.249,2.249,0,0,1-.386-.123,2.789,2.789,0,0,0-.932-.225,1.242,1.242,0,0,0-.877.305,1.064,1.064,0,0,0-.339.813,1.194,1.194,0,0,0,.441.915,1.555,1.555,0,0,0,1.076.381,2.862,2.862,0,0,0,1.733-.691,4.655,4.655,0,0,0,1.407-1.991l3.5-8.584a6.537,6.537,0,0,1,.288-.669,1.269,1.269,0,0,1,.339-.356,1.129,1.129,0,0,1,.436-.119l.22-.025v-.818h-3.292Z" transform="translate(-232.976 -241.171)"/><path class="c" d="M142.111,285.49a2.731,2.731,0,0,0-1.551.5,4.037,4.037,0,0,0-.949.966v-1.424h-.606l-2.966,1.178.284.758.233-.089a1.383,1.383,0,0,1,.487-.114.543.543,0,0,1,.305.068.4.4,0,0,1,.144.212,4.047,4.047,0,0,1,.064.983v8.131a3.452,3.452,0,0,1-.081,1.072.456.456,0,0,1-.169.216,1.54,1.54,0,0,1-.763.165h-.483v.843h5v-.843h-.246a1.994,1.994,0,0,1-.856-.114.554.554,0,0,1-.267-.263,3.173,3.173,0,0,1-.085-1.021v-2.1a2.332,2.332,0,0,0,.508.275,3.857,3.857,0,0,0,4.127-1.063,5.632,5.632,0,0,0,1.339-3.843,5.06,5.06,0,0,0-1.119-3.389A3,3,0,0,0,142.111,285.49Zm-.741,1.86a1.535,1.535,0,0,1,1.233.64,4.475,4.475,0,0,1,.809,2.877,4.025,4.025,0,0,1-.708,2.542,1.609,1.609,0,0,1-1.326.64,1.75,1.75,0,0,1-1.135-.356,1.505,1.505,0,0,1-.559-.826,6.5,6.5,0,0,1-.076-1.309v-3.114a4.323,4.323,0,0,1,.983-.89A1.672,1.672,0,0,1,141.37,287.35Z" transform="translate(-136.04 -263.976)"/><path class="c" d="M169.192,287.794a.5.5,0,0,1-.216-.242,2.853,2.853,0,0,1-.11-1.017v-3.042a9.3,9.3,0,0,0-.186-2.267,2.642,2.642,0,0,0-.864-1.394,2.523,2.523,0,0,0-2.745-.1,5.793,5.793,0,0,0-1.288,1.063V274.88H163.1l-2.894,1.161.309.775.225-.076a2,2,0,0,1,.559-.136.351.351,0,0,1,.229.064.583.583,0,0,1,.131.322,12.27,12.27,0,0,1,.064,1.763v7.783a2.941,2.941,0,0,1-.093.974.447.447,0,0,1-.191.237,1.7,1.7,0,0,1-.784.148h-.246v.835h4.758V287.9h-.246a1.849,1.849,0,0,1-.805-.114.583.583,0,0,1-.258-.246,3.217,3.217,0,0,1-.076-1v-4.449a4.077,4.077,0,0,1,1.055-.86,1.476,1.476,0,0,1,1.479-.042,1,1,0,0,1,.369.534,6.9,6.9,0,0,1,.131,1.771v3.042a7.48,7.48,0,0,1-.021.818.729.729,0,0,1-.242.407,1.133,1.133,0,0,1-.682.131h-.445v.835h4.72v-.835H169.9A1.544,1.544,0,0,1,169.192,287.794Z" transform="translate(-149.969 -257.862)"/><path class="c" d="M192.71,293.3a.191.191,0,0,1-.225,0,.459.459,0,0,1-.072-.225,12.273,12.273,0,0,1-.042-1.466v-2.919a5.386,5.386,0,0,0-.186-1.75,2.021,2.021,0,0,0-.928-1.034,4.257,4.257,0,0,0-1.991-.415,3.8,3.8,0,0,0-2.474.733,2.155,2.155,0,0,0-.915,1.674,1.2,1.2,0,0,0,.284.83.975.975,0,0,0,.754.326,1,1,0,0,0,.758-.314,1.183,1.183,0,0,0,.288-.843l-.017-.534a.726.726,0,0,1,.275-.551,1.092,1.092,0,0,1,.771-.254,1.231,1.231,0,0,1,1,.39,2.509,2.509,0,0,1,.347,1.606v.165a20.315,20.315,0,0,0-3.046,1.33,3.96,3.96,0,0,0-1.424,1.284,2.287,2.287,0,0,0-.318,1.22,2.491,2.491,0,0,0,.644,1.775,2.177,2.177,0,0,0,1.648.686,2.783,2.783,0,0,0,1.186-.258,9.224,9.224,0,0,0,1.343-.932,1.569,1.569,0,0,0,.305.775,1.145,1.145,0,0,0,.919.407c.729,0,1.449-.491,2.207-1.508l.051-.068v-1.208l-.424.424A5.548,5.548,0,0,1,192.71,293.3Zm-5.1-1.182a1.4,1.4,0,0,1,.275-.843,3,3,0,0,1,.983-.792,15.093,15.093,0,0,1,1.462-.648v2.792a3.064,3.064,0,0,1-1.631.809.974.974,0,0,1-.746-.364A1.339,1.339,0,0,1,187.609,292.116Z" transform="translate(-164.573 -263.976)"/><path class="c" d="M211.707,289.58l-1.373-.665a2.944,2.944,0,0,1-1.1-.75,1.146,1.146,0,0,1-.246-.746.769.769,0,0,1,.318-.58,1.308,1.308,0,0,1,.9-.288,1.831,1.831,0,0,1,1.258.432,3.611,3.611,0,0,1,.839,1.754l.047.186h.75V285.5h-.712l-.068.136a.954.954,0,0,1-.127.208.163.163,0,0,1-.081.013,2.578,2.578,0,0,1-.568-.131,4.755,4.755,0,0,0-1.3-.225,2.816,2.816,0,0,0-2.055.784,2.626,2.626,0,0,0-.8,1.953,2.373,2.373,0,0,0,.475,1.5,5.587,5.587,0,0,0,1.868,1.292,7.744,7.744,0,0,1,1.754,1.072,1.212,1.212,0,0,1,.381.911.944.944,0,0,1-.33.733,1.237,1.237,0,0,1-.886.314,2.174,2.174,0,0,1-1.5-.6,3.269,3.269,0,0,1-.928-1.847l-.038-.2h-.763v3.567h.712l.068-.136c.055-.106.1-.106.114-.106a1.7,1.7,0,0,1,.441.085,7.026,7.026,0,0,0,1.868.292,3.3,3.3,0,0,0,2.14-.775,2.567,2.567,0,0,0,.979-2.085A3.006,3.006,0,0,0,211.707,289.58Z" transform="translate(-177.16 -263.982)"/><path class="c" d="M232.665,291.169a3.219,3.219,0,0,1-.962,1.479,2.138,2.138,0,0,1-1.322.415,2.565,2.565,0,0,1-2.017-1,4.035,4.035,0,0,1-.864-2.593h5.936v-.246a3.747,3.747,0,0,0-1-2.724,3.426,3.426,0,0,0-2.551-1.025,3.932,3.932,0,0,0-3.021,1.313,5.175,5.175,0,0,0-1.195,3.61,4.879,4.879,0,0,0,1.169,3.411,3.712,3.712,0,0,0,2.834,1.288,3.3,3.3,0,0,0,2.559-1.14,4.759,4.759,0,0,0,1.208-2.47l.025-.157-.686-.441Zm-3.309-4.533a1.494,1.494,0,0,1,.839.263,1.592,1.592,0,0,1,.606.716,2.641,2.641,0,0,1,.157.818h-3.432a2.25,2.25,0,0,1,.61-1.258A1.666,1.666,0,0,1,229.356,286.635Z" transform="translate(-187.695 -263.965)"/><path class="c" d="M258.86,277.177h.7a1.506,1.506,0,0,1,.737.191.63.63,0,0,1,.28.28,3.851,3.851,0,0,1,.106,1.186v8.224c0,.958-.123,1.224-.174,1.292a1.118,1.118,0,0,1-.949.364h-.7v.843h5.949v-.843H264.1a1.462,1.462,0,0,1-.733-.195.6.6,0,0,1-.284-.28,3.878,3.878,0,0,1-.106-1.186V278.83c0-.958.127-1.224.182-1.292a1.105,1.105,0,0,1,.941-.364h.708v-.843H258.86Z" transform="translate(-206.823 -258.697)"/><path class="c" d="M275.1,277.177h.7a1.506,1.506,0,0,1,.737.191.63.63,0,0,1,.28.28,3.851,3.851,0,0,1,.106,1.186v8.224c0,.958-.123,1.224-.174,1.292a1.118,1.118,0,0,1-.949.364h-.7v.843h5.949v-.843h-.708a1.462,1.462,0,0,1-.733-.195.6.6,0,0,1-.284-.28,3.877,3.877,0,0,1-.106-1.186V278.83c0-.958.127-1.224.182-1.292a1.105,1.105,0,0,1,.941-.364h.708v-.843H275.1Z" transform="translate(-216.182 -258.697)"/><path class="c" d="M294.728,302.09a1.257,1.257,0,0,0-.911.373,1.291,1.291,0,1,0,2.2.919,1.257,1.257,0,0,0-.373-.911A1.228,1.228,0,0,0,294.728,302.09Z" transform="translate(-226.752 -273.543)"/></g></g></svg>