<svg xmlns="http://www.w3.org/2000/svg" width="142.449" height="49.501" viewBox="0 0 142.449 49.501"><defs><style>.a{fill:#fbcc13;}.b{fill:#126735;}.c,.d{fill:#fff;}.c{opacity:0.25;}.d{opacity:0.2;}</style></defs><g transform="translate(-418.36 -42.3)"><path class="a" d="M455.048,108.038c-.013.176-.215.215-.348.288a26.831,26.831,0,0,1-7.032,2.467,4.552,4.552,0,0,1-1.371.09,5.227,5.227,0,0,1-1.973-.6c-.507-.258-1.01-.516-1.513-.782a66.092,66.092,0,0,1-15.2-10.828,61.221,61.221,0,0,1-6.641-7.531c-.744-.984-1.453-1.99-2.123-3.026a6.9,6.9,0,0,1-.473-.963V85.8c.129-1.156.232-2.317.4-3.469a23.284,23.284,0,0,1,1.612-5.554.958.958,0,0,1,.378-.55c.288.524.572,1.045.855,1.565.107.2.215.4.322.6a62.344,62.344,0,0,0,12.225,16.093,66.581,66.581,0,0,0,16.639,11.447c.572.279,1.148.559,1.728.821.714.331,1.436.645,2.149.98C454.825,107.8,455.074,107.8,455.048,108.038Z" transform="translate(-0.006 -19.346)"/><path class="b" d="M490.7,69.715a26.947,26.947,0,0,1-1.01,4.879,1.06,1.06,0,0,1-.069.181c-.15.292-.387.215-.688.06q-1.857-.928-3.654-1.956c-1.865-1.057-3.688-2.192-5.45-3.43a62.779,62.779,0,0,1-18.462-20.2c-.967-1.676-1.823-3.409-2.686-5.132-.254-.5-.086-.671.387-.8a25.829,25.829,0,0,1,4.965-.907,5.455,5.455,0,0,0,.589-.107h.4c1.1,1.775,2.05,3.636,3.181,5.4a63.124,63.124,0,0,0,12.414,14.219,71.711,71.711,0,0,0,6.465,4.879c1.019.692,2.059,1.35,3.116,1.986A.875.875,0,0,1,490.7,69.715Z" transform="translate(-22.924)"/><path class="b" d="M465.646,93.426l-.189.2a27.413,27.413,0,0,1-3.357,2.919,1.1,1.1,0,0,1-1.225.163q-2.063-.858-4.058-1.831a66.85,66.85,0,0,1-15.238-10.1,63.71,63.71,0,0,1-14.6-19.05c-.013-.017-.017-.034-.03-.052-.8-1.59-.791-1.612.236-3.142a21.916,21.916,0,0,1,3.009-3.619c.129-.125.271-.236.4-.348.305.052.331.309.421.5a.023.023,0,0,0,.013.017,80.318,80.318,0,0,0,3.929,7.35,64.989,64.989,0,0,0,18.156,19.24,72.961,72.961,0,0,0,8.36,5.051q1.883.986,3.813,1.865C465.994,92.914,466.067,92.97,465.646,93.426Z" transform="translate(-4.573 -9.277)"/><path class="a" d="M478.47,80.216c-.039.1-.086.224-.142.348a27.031,27.031,0,0,1-2.1,3.611c-.03.039-.052.077-.077.112a.775.775,0,0,1-1.092.232q-2-.877-3.942-1.866-2.714-1.373-5.313-2.974A63.613,63.613,0,0,1,452.233,68.46,64.352,64.352,0,0,1,440.958,51.2a1.856,1.856,0,0,1-.09-.236.728.728,0,0,1,.378-.894c.95-.653,1.921-1.272,2.923-1.831.443-.254.9-.49,1.363-.718.589-.3.855-.159,1.118.417a66.038,66.038,0,0,0,7.14,11.971,65.317,65.317,0,0,0,20.478,17.808l.2.116c1.2.675,2.42,1.3,3.628,1.947C478.272,79.868,478.491,79.92,478.47,80.216Z" transform="translate(-12.811 -2.889)"/><path class="a" d="M502.889,66.583c-.241.142-.456-.116-.658-.241-.881-.542-1.749-1.1-2.6-1.685a62.731,62.731,0,0,1-10.381-8.889,63.733,63.733,0,0,1-9.156-12.56c-.271-.477-.168-.658.37-.6a23.894,23.894,0,0,1,8.343,2.278,1.766,1.766,0,0,1,.632.6,62.171,62.171,0,0,0,8.12,9.267c.589.559,1.186,1.1,1.8,1.62.327.279.653.559.984.825a3.769,3.769,0,0,1,1.289,1.84,27.447,27.447,0,0,1,1.044,4.049c.146.928.236,1.865.344,2.725C502.966,66.123,503.125,66.437,502.889,66.583Z" transform="translate(-35.119 -0.169)"/><path class="b" d="M442.806,131.1c-.782.322-2.592.073-4.677-.512a29.454,29.454,0,0,1-7.845-3.417,24.259,24.259,0,0,1-10.505-15.7c1.079,1.444,2.2,2.841,3.374,4.174a67.782,67.782,0,0,0,17.967,14.537c.469.262.933.516,1.406.769C442.622,130.993,442.712,131.045,442.806,131.1Z" transform="translate(-0.81 -39.438)"/><path class="b" d="M516.57,60.988a5.651,5.651,0,0,1-.9-.7c-1.99-1.788-5.936-6.228-6.392-7.342a23.991,23.991,0,0,1,6.074,6.13Q516,60,516.57,60.988Z" transform="translate(-51.839 -6.072)"/><g transform="translate(472.356 53.888)"><path d="M545.476,74.8c0-2.678,0-3.159-.034-3.705-.034-.585-.172-.86-.739-.98a3.216,3.216,0,0,0-.585-.052c-.069,0-.138-.034-.138-.1,0-.1.086-.138.275-.138.774,0,1.784.052,1.887.052.155,0,1.152-.052,1.663-.052.189,0,.275.034.275.138,0,.069-.069.1-.138.1a2.556,2.556,0,0,0-.43.052c-.464.086-.6.378-.636.98-.034.55-.034,1.032-.034,3.705v1.032h.069c.292-.327,3.4-3.482,4.015-4.152.481-.5.928-.946.928-1.234a.338.338,0,0,0-.224-.361c-.086-.034-.155-.069-.155-.138,0-.086.086-.12.206-.12.344,0,.877.052,1.285.052.086,0,1.216-.052,1.646-.052.189,0,.258.034.258.12s-.034.12-.172.12a2.543,2.543,0,0,0-.963.241,6.373,6.373,0,0,0-1.853,1.474c-.43.413-3.413,3.331-3.774,3.757.447.5,4.015,4.187,4.72,4.84a7.869,7.869,0,0,0,2.558,1.956,3.171,3.171,0,0,0,1.062.224c.12,0,.224.034.224.1,0,.086-.086.138-.378.138h-.877c-.481,0-.808,0-1.182-.034a3.566,3.566,0,0,1-2.076-1.045c-.774-.636-4.41-4.565-5.235-5.575h-.086v1.681c0,1.646,0,3,.086,3.722.052.5.155.877.671.941a5.9,5.9,0,0,0,.671.069c.1,0,.138.052.138.1,0,.086-.086.138-.275.138-.842,0-1.835-.052-1.973-.052s-1.13.052-1.646.052c-.189,0-.275-.034-.275-.138,0-.052.034-.1.138-.1a2.655,2.655,0,0,0,.516-.069c.344-.069.43-.447.5-.941.086-.722.086-2.076.086-3.722V74.8Z" transform="translate(-543.98 -69.579)"/><path d="M577.215,77.815c0,1.646,0,3,.086,3.722.052.5.155.877.671.941a7.5,7.5,0,0,0,.774.069c.1,0,.138.052.138.1,0,.086-.086.138-.275.138-.946,0-2.025-.052-2.111-.052s-1.165.052-1.681.052c-.189,0-.275-.034-.275-.138,0-.052.034-.1.138-.1a2.655,2.655,0,0,0,.516-.069c.344-.069.43-.447.5-.941.086-.722.086-2.076.086-3.722V74.8c0-2.678,0-3.159-.034-3.705-.034-.585-.206-.877-.585-.963a2.256,2.256,0,0,0-.533-.069c-.069,0-.138-.034-.138-.1,0-.1.086-.138.275-.138.567,0,1.646.052,1.732.052s1.165-.052,1.681-.052c.189,0,.275.034.275.138,0,.069-.069.1-.138.1a2.556,2.556,0,0,0-.43.052c-.464.086-.6.378-.636.98-.034.55-.034,1.032-.034,3.705Z" transform="translate(-561.376 -69.579)"/><path d="M599.99,78.1c0-1.388-.086-1.577-.774-1.767a3.214,3.214,0,0,0-.585-.052c-.069,0-.138-.034-.138-.1,0-.1.086-.138.275-.138.774,0,1.853.052,1.939.052s1.165-.052,1.681-.052c.189,0,.275.034.275.138,0,.069-.069.1-.138.1a2.555,2.555,0,0,0-.43.052c-.464.086-.6.378-.636.98-.034.55-.034,1.066-.034,1.784v1.921c0,.774-.017.808-.224.928a9.333,9.333,0,0,1-9.28-1.062A6.7,6.7,0,0,1,589.88,76a6.49,6.49,0,0,1,2.867-5.644,8.407,8.407,0,0,1,4.565-1.083,14.658,14.658,0,0,1,2.626.292,8.57,8.57,0,0,0,1.388.172c.172.017.206.086.206.155a21.722,21.722,0,0,0-.12,2.437c0,.275-.034.361-.155.361-.086,0-.1-.1-.12-.258a2.611,2.611,0,0,0-.361-1.13c-.43-.653-1.818-1.388-4.032-1.388a4.9,4.9,0,0,0-5.369,5.493,7,7,0,0,0,1.818,4.754,6.252,6.252,0,0,0,4.5,1.835,4.673,4.673,0,0,0,1.956-.361.625.625,0,0,0,.344-.6V78.1Z" transform="translate(-570.15 -69.266)"/><path d="M626.658,69.931c.206-.567.275-.671.378-.671s.172.086.378.619c.258.653,2.953,7.737,4,10.346.619,1.526,1.113,1.8,1.474,1.9a2.22,2.22,0,0,0,.688.1c.1,0,.172.017.172.1,0,.1-.155.138-.344.138-.258,0-1.509,0-2.7-.034-.327-.017-.516-.017-.516-.12,0-.069.052-.1.12-.12.1-.034.206-.189.1-.464l-1.595-4.221a.15.15,0,0,0-.155-.1h-3.688a.181.181,0,0,0-.172.138l-1.032,3.039a3.631,3.631,0,0,0-.241,1.152c0,.344.361.5.653.5h.172c.12,0,.172.034.172.1,0,.1-.1.138-.258.138-.413,0-1.152-.052-1.337-.052s-1.135.052-1.939.052c-.224,0-.327-.034-.327-.138,0-.069.069-.1.155-.1.12,0,.361-.017.5-.034.791-.1,1.135-.757,1.44-1.612Zm1.784,6.865c.086,0,.086-.052.069-.12l-1.629-4.634q-.129-.387-.258,0l-1.513,4.634c-.034.086,0,.12.052.12Z" transform="translate(-587.706 -69.26)"/><path d="M656.24,77.849c0,2.523.069,3.619.378,3.929.275.275.722.4,2.059.4.911,0,1.663-.017,2.076-.516a2.4,2.4,0,0,0,.447-1.032c.017-.138.052-.224.155-.224.086,0,.1.069.1.258a10.94,10.94,0,0,1-.258,1.715c-.12.4-.172.464-1.083.464-1.234,0-2.128-.034-2.85-.052-.722-.034-1.251-.052-1.749-.052-.069,0-.361.017-.7.017-.344.017-.722.034-.98.034-.189,0-.275-.034-.275-.138,0-.052.034-.1.138-.1a2.655,2.655,0,0,0,.516-.069c.344-.069.43-.447.5-.941.086-.722.086-2.076.086-3.722V74.8c0-2.678,0-3.159-.034-3.705-.034-.585-.172-.86-.739-.98a3.215,3.215,0,0,0-.585-.052c-.069,0-.138-.034-.138-.1,0-.1.086-.138.275-.138.774,0,1.853.052,1.939.052s1.337-.052,1.853-.052c.189,0,.275.034.275.138,0,.069-.069.1-.138.1a4.038,4.038,0,0,0-.567.052c-.5.086-.636.378-.671.98-.034.55-.034,1.032-.034,3.705v3.052Z" transform="translate(-606.31 -69.579)"/><path d="M680.155,77.815c0,1.646,0,3,.086,3.722.052.5.155.877.671.941a7.5,7.5,0,0,0,.774.069c.1,0,.138.052.138.1,0,.086-.086.138-.275.138-.946,0-2.025-.052-2.11-.052s-1.165.052-1.681.052c-.189,0-.275-.034-.275-.138,0-.052.034-.1.138-.1a2.655,2.655,0,0,0,.516-.069c.344-.069.43-.447.5-.941.086-.722.086-2.076.086-3.722V74.8c0-2.678,0-3.159-.034-3.705-.034-.585-.206-.877-.585-.963a2.256,2.256,0,0,0-.533-.069c-.069,0-.138-.034-.138-.1,0-.1.086-.138.275-.138.567,0,1.646.052,1.732.052s1.165-.052,1.681-.052c.189,0,.275.034.275.138,0,.069-.069.1-.138.1a2.556,2.556,0,0,0-.43.052c-.464.086-.6.378-.636.98-.034.55-.034,1.032-.034,3.705v3.017Z" transform="translate(-620.068 -69.579)"/><path d="M555.851,113.149c0,1.646,0,3,.086,3.722.052.5.155.877.671.941a7.5,7.5,0,0,0,.774.069c.1,0,.138.052.138.1,0,.086-.086.138-.275.138-.946,0-2.025-.052-2.111-.052s-1.165.052-1.681.052c-.189,0-.275-.034-.275-.138,0-.052.034-.1.138-.1a2.655,2.655,0,0,0,.516-.069c.344-.069.43-.447.5-.941.086-.722.086-2.076.086-3.722v-1.8a.1.1,0,0,0-.1-.1h-7.277a.09.09,0,0,0-.1.1v1.8c0,1.646,0,3,.086,3.722.052.5.155.877.671.941a7.5,7.5,0,0,0,.774.069c.1,0,.138.052.138.1,0,.086-.086.138-.275.138-.946,0-2.025-.052-2.111-.052s-1.165.052-1.681.052c-.189,0-.275-.034-.275-.138,0-.052.034-.1.138-.1a2.655,2.655,0,0,0,.516-.069c.344-.069.43-.447.5-.941.086-.722.086-2.076.086-3.722v-3.022c0-2.678,0-3.159-.034-3.705-.034-.585-.172-.86-.739-.98a3.215,3.215,0,0,0-.585-.052c-.069,0-.138-.034-.138-.1,0-.1.086-.138.275-.138.774,0,1.853.052,1.939.052s1.165-.052,1.681-.052c.189,0,.275.034.275.138,0,.069-.069.1-.138.1a2.556,2.556,0,0,0-.43.052c-.464.086-.6.378-.636.98-.034.55-.034,1.032-.034,3.705v.361a.09.09,0,0,0,.1.1h7.277a.09.09,0,0,0,.1-.1v-.361c0-2.678,0-3.159-.034-3.705-.034-.585-.172-.86-.739-.98a3.215,3.215,0,0,0-.585-.052c-.069,0-.138-.034-.138-.1,0-.1.086-.138.275-.138.774,0,1.853.052,1.939.052s1.165-.052,1.681-.052c.189,0,.275.034.275.138,0,.069-.069.1-.138.1a2.557,2.557,0,0,0-.43.052c-.464.086-.6.378-.636.98-.034.55-.034,1.032-.034,3.705v3.022Z" transform="translate(-543.992 -89.723)"/><path d="M583.8,109.945c0-2.678,0-3.159-.034-3.705-.034-.585-.172-.86-.739-.98a3.216,3.216,0,0,0-.585-.052c-.069,0-.138-.034-.138-.1,0-.1.086-.138.275-.138.4,0,.86,0,1.234.017l.7.034c.12,0,3.533,0,3.929-.017a4.585,4.585,0,0,0,.739-.086c.086-.017.155-.086.241-.086.052,0,.069.069.069.155,0,.12-.086.327-.138.808-.017.172-.052.928-.086,1.13-.017.086-.052.189-.12.189-.1,0-.138-.086-.138-.224a1.846,1.846,0,0,0-.1-.619c-.12-.275-.292-.481-1.216-.585-.292-.034-2.162-.052-2.351-.052-.069,0-.1.052-.1.172v4.737c0,.12.017.172.1.172.224,0,2.334,0,2.729-.034.413-.034.653-.069.808-.241.12-.138.189-.224.258-.224.052,0,.086.034.086.138s-.086.4-.138.963c-.034.344-.069.98-.069,1.1,0,.138,0,.327-.12.327-.086,0-.12-.069-.12-.155a1.757,1.757,0,0,0-.069-.567c-.069-.241-.224-.533-.894-.6-.464-.052-2.162-.086-2.454-.086a.109.109,0,0,0-.12.12v1.509c0,.585-.017,2.575,0,2.936.052,1.182.309,1.406,1.99,1.406a4.906,4.906,0,0,0,1.646-.189c.447-.189.653-.533.774-1.234.034-.189.069-.258.155-.258.1,0,.1.138.1.258a16.775,16.775,0,0,1-.224,1.663c-.12.447-.258.447-.928.447-1.285,0-2.231-.034-2.9-.052-.671-.034-1.083-.052-1.337-.052-.034,0-.327,0-.688.017-.344,0-.739.034-.993.034-.189,0-.275-.034-.275-.138,0-.052.034-.1.138-.1a2.655,2.655,0,0,0,.516-.069c.344-.069.43-.447.5-.941.086-.722.086-2.076.086-3.722v-3.017Z" transform="translate(-565.829 -89.541)"/><path d="M609.865,113.149c0,1.646,0,3,.086,3.722.052.5.155.877.671.941a7.5,7.5,0,0,0,.774.069c.1,0,.138.052.138.1,0,.086-.086.138-.275.138-.946,0-2.025-.052-2.11-.052s-1.165.052-1.681.052c-.189,0-.275-.034-.275-.138,0-.052.034-.1.138-.1a2.655,2.655,0,0,0,.516-.069c.344-.069.43-.447.5-.941.086-.722.086-2.076.086-3.722v-3.022c0-2.678,0-3.159-.034-3.705-.034-.585-.206-.877-.585-.963a2.256,2.256,0,0,0-.533-.069c-.069,0-.138-.034-.138-.1,0-.1.086-.138.275-.138.567,0,1.646.052,1.732.052s1.165-.052,1.681-.052c.189,0,.275.034.275.138,0,.069-.069.1-.138.1a2.556,2.556,0,0,0-.43.052c-.464.086-.6.378-.636.98-.034.55-.034,1.032-.034,3.705v3.022Z" transform="translate(-579.991 -89.723)"/><path d="M632.64,113.443c0-1.388-.086-1.578-.774-1.767a3.215,3.215,0,0,0-.585-.052c-.069,0-.138-.034-.138-.1,0-.1.086-.138.275-.138.774,0,1.853.052,1.939.052s1.165-.052,1.681-.052c.189,0,.275.034.275.138,0,.069-.069.1-.138.1a2.556,2.556,0,0,0-.43.052c-.464.086-.6.378-.636.98-.034.55-.034,1.066-.034,1.784v1.921c0,.774-.017.808-.224.928a9.333,9.333,0,0,1-9.28-1.062,6.7,6.7,0,0,1-2.042-4.892,6.49,6.49,0,0,1,2.867-5.644,8.407,8.407,0,0,1,4.565-1.083,14.658,14.658,0,0,1,2.626.292,8.572,8.572,0,0,0,1.388.172c.172.017.206.086.206.155a21.723,21.723,0,0,0-.12,2.437c0,.275-.034.361-.155.361-.086,0-.1-.1-.12-.258a2.61,2.61,0,0,0-.361-1.13c-.43-.653-1.818-1.388-4.032-1.388a4.9,4.9,0,0,0-5.369,5.493,7,7,0,0,0,1.818,4.754,6.252,6.252,0,0,0,4.5,1.835,4.673,4.673,0,0,0,1.956-.361.625.625,0,0,0,.344-.6v-2.927Z" transform="translate(-588.766 -89.415)"/><path d="M669.891,113.149c0,1.646,0,3,.086,3.722.052.5.155.877.671.941a7.5,7.5,0,0,0,.774.069c.1,0,.138.052.138.1,0,.086-.086.138-.275.138-.946,0-2.025-.052-2.11-.052s-1.165.052-1.681.052c-.189,0-.275-.034-.275-.138,0-.052.034-.1.138-.1a2.655,2.655,0,0,0,.516-.069c.344-.069.43-.447.5-.941.086-.722.086-2.076.086-3.722v-1.8a.1.1,0,0,0-.1-.1h-7.277a.09.09,0,0,0-.1.1v1.8c0,1.646,0,3,.086,3.722.052.5.155.877.671.941a7.5,7.5,0,0,0,.774.069c.1,0,.138.052.138.1,0,.086-.086.138-.275.138-.946,0-2.025-.052-2.11-.052s-1.165.052-1.681.052c-.189,0-.275-.034-.275-.138,0-.052.034-.1.138-.1a2.655,2.655,0,0,0,.516-.069c.344-.069.43-.447.5-.941.086-.722.086-2.076.086-3.722v-3.022c0-2.678,0-3.159-.034-3.705-.034-.585-.172-.86-.739-.98a3.216,3.216,0,0,0-.585-.052c-.069,0-.138-.034-.138-.1,0-.1.086-.138.275-.138.774,0,1.853.052,1.939.052s1.165-.052,1.681-.052c.189,0,.275.034.275.138,0,.069-.069.1-.138.1a2.555,2.555,0,0,0-.43.052c-.464.086-.6.378-.636.98-.034.55-.034,1.032-.034,3.705v.361a.091.091,0,0,0,.1.1h7.277a.09.09,0,0,0,.1-.1v-.361c0-2.678,0-3.159-.034-3.705-.034-.585-.172-.86-.739-.98a3.216,3.216,0,0,0-.585-.052c-.069,0-.138-.034-.138-.1,0-.1.086-.138.275-.138.774,0,1.853.052,1.939.052s1.165-.052,1.681-.052c.189,0,.275.034.275.138,0,.069-.069.1-.138.1a2.556,2.556,0,0,0-.43.052c-.464.086-.6.378-.636.98-.034.55-.034,1.032-.034,3.705v3.022Z" transform="translate(-609.013 -89.723)"/><path d="M700,112.836c0,1.646,0,3,.086,3.722.052.5.155.877.671.941a7.5,7.5,0,0,0,.774.069c.1,0,.138.052.138.1,0,.086-.086.138-.275.138-.946,0-2.025-.052-2.11-.052s-1.165.052-1.681.052c-.189,0-.275-.034-.275-.138,0-.052.034-.1.138-.1a2.655,2.655,0,0,0,.516-.069c.344-.069.43-.447.5-.941.086-.722.086-2.076.086-3.722v-7.26l-2.54.034c-1.066.017-1.474.138-1.749.55a3.027,3.027,0,0,0-.292.533c-.052.138-.1.172-.172.172-.052,0-.086-.052-.086-.155,0-.172.344-1.646.378-1.784.034-.1.1-.327.172-.327a3.209,3.209,0,0,0,.756.206c.5.052,1.152.086,1.354.086h6.435a6.817,6.817,0,0,0,1.216-.086c.258-.034.413-.086.481-.086.086,0,.086.1.086.206,0,.516-.052,1.7-.052,1.887,0,.155-.052.224-.12.224-.086,0-.12-.052-.138-.292l-.017-.189c-.052-.516-.464-.911-2.11-.946L700,105.576v7.26Z" transform="translate(-629.356 -89.41)"/><path d="M724.028,117.584c-.241-.12-.258-.189-.258-.653,0-.86.069-1.543.086-1.818.017-.189.052-.275.138-.275.1,0,.12.052.12.189a3.029,3.029,0,0,0,.052.636,2.335,2.335,0,0,0,2.54,1.749,2.291,2.291,0,0,0,2.454-2.282c0-1.182-.5-1.87-1.973-3.091l-.774-.636c-1.818-1.492-2.231-2.558-2.231-3.722,0-1.835,1.371-3.091,3.551-3.091a6.629,6.629,0,0,1,1.595.172,2.813,2.813,0,0,0,.6.086c.138,0,.172.034.172.12s-.069.653-.069,1.818c0,.275-.034.4-.12.4-.1,0-.12-.086-.138-.224a3.022,3.022,0,0,0-.224-.86c-.1-.189-.567-.911-2.145-.911a1.953,1.953,0,0,0-2.11,1.99c0,.98.447,1.595,2.093,2.884l.481.378c2.025,1.595,2.506,2.661,2.506,4.032a3.562,3.562,0,0,1-1.457,2.85,4.509,4.509,0,0,1-2.592.722A5.137,5.137,0,0,1,724.028,117.584Z" transform="translate(-646.489 -89.404)"/><path d="M745.36,131.771a.922.922,0,0,1,.946-.941.88.88,0,0,1,.946.89.948.948,0,0,1-.963,1A.9.9,0,0,1,745.36,131.771Z" transform="translate(-658.799 -104.365)"/></g><path class="c" d="M523.722,68.416c-.095-.413-.2-.817-.322-1.216.434.615.838,1.247,1.221,1.913A5.648,5.648,0,0,1,523.722,68.416Z" transform="translate(-59.89 -14.197)"/><path class="c" d="M465.462,154.98c.559.314,1.118.619,1.685.924-.782.322-2.592.073-4.677-.512A29.982,29.982,0,0,0,465.462,154.98Z" transform="translate(-25.15 -64.246)"/><path class="c" d="M487.468,147.43c-.013.176-.215.215-.348.288a26.832,26.832,0,0,1-7.032,2.467,4.8,4.8,0,0,1-3.344-.512c-.507-.258-1.01-.516-1.513-.782a29.633,29.633,0,0,0,7.991-3.572c.572.279,1.148.559,1.728.821.714.331,1.436.645,2.149.98C487.244,147.19,487.493,147.19,487.468,147.43Z" transform="translate(-32.425 -58.738)"/><path class="c" d="M506.019,136.074l-.189.2a27.411,27.411,0,0,1-3.357,2.919,1.1,1.1,0,0,1-1.225.163q-2.063-.858-4.058-1.831a29.508,29.508,0,0,0,4.655-4.157q1.883.986,3.813,1.865C506.367,135.562,506.44,135.618,506.019,136.074Z" transform="translate(-44.946 -51.925)"/><path class="c" d="M518.65,120.466c-.039.1-.086.224-.142.348a27.028,27.028,0,0,1-2.1,3.611c-.03.039-.052.077-.077.112a.775.775,0,0,1-1.092.232q-2-.877-3.942-1.865a29.743,29.743,0,0,0,3.151-4.943l.2.116c1.2.675,2.42,1.3,3.628,1.947C518.453,120.118,518.672,120.169,518.65,120.466Z" transform="translate(-52.991 -43.138)"/><path class="c" d="M526.14,102.22a26.95,26.95,0,0,1-1.01,4.879,1.065,1.065,0,0,1-.069.181c-.15.292-.387.215-.688.06q-1.857-.928-3.654-1.956a30.05,30.05,0,0,0,1.818-6.074c1.019.692,2.059,1.35,3.116,1.986A.874.874,0,0,1,526.14,102.22Z" transform="translate(-58.362 -32.505)"/><path class="c" d="M528.635,84.853c-.241.142-.456-.116-.658-.241-.881-.542-1.749-1.1-2.6-1.685a29.96,29.96,0,0,0,.168-3.181,29.38,29.38,0,0,0-.438-5.106c.327.279.653.559.984.825a3.769,3.769,0,0,1,1.289,1.84,27.45,27.45,0,0,1,1.045,4.049c.146.928.236,1.866.344,2.725C528.712,84.393,528.871,84.707,528.635,84.853Z" transform="translate(-60.865 -18.439)"/><path class="d" d="M420.956,91.141c-.744-.984-1.453-1.99-2.123-3.026a6.9,6.9,0,0,1-.473-.963V85.8c.129-1.156.232-2.317.4-3.469a23.285,23.285,0,0,1,1.612-5.554.959.959,0,0,1,.378-.55c.288.524.572,1.045.855,1.565a25.32,25.32,0,0,0-1.182,9.641A26.16,26.16,0,0,0,420.956,91.141Z" transform="translate(0 -19.346)"/><path class="d" d="M426.942,65.67c-.8-1.59-.791-1.612.236-3.142a21.916,21.916,0,0,1,3.009-3.619c.129-.125.271-.236.4-.348.305.052.331.309.421.5a.023.023,0,0,0,.013.017A25.113,25.113,0,0,0,426.942,65.67Z" transform="translate(-4.567 -9.271)"/><path class="d" d="M440.868,52.115a.728.728,0,0,1,.378-.894c.95-.653,1.921-1.272,2.923-1.831A25.738,25.738,0,0,0,440.868,52.115Z" transform="translate(-12.811 -4.042)"/></g></svg>