<svg xmlns="http://www.w3.org/2000/svg" width="80.793" height="49.501" viewBox="0 0 80.793 49.501"><defs><style>.a{fill:#7b0f81;}.b{fill:#fff;opacity:0.3;}</style></defs><g transform="translate(-4257.379 -6332.551)"><g transform="translate(4288.839 6338.935)"><path class="a" d="M367.609,383.486c.116-.393-.089-.609-.488-.518l-.114.03c-.654.183-1.308.357-1.959.551-.183.055-.247.017-.3-.158-.319-.995-.648-1.986-.975-2.978-.125-.382-.324-.457-.665-.241-.715.452-1.432.9-2.141,1.363-.144.094-.211.094-.307-.066-.612-1.039-1.235-2.067-1.853-3.1-.258-.429-.537-.432-.8,0-.618,1.033-1.241,2.064-1.853,3.1-.091.152-.152.172-.307.072-.706-.463-1.424-.911-2.139-1.363-.344-.213-.543-.141-.668.235-.327.995-.657,1.983-.975,2.978-.055.172-.111.222-.3.163-.687-.2-1.38-.393-2.072-.579-.4-.105-.607.122-.49.512.482,1.629.958,3.258,1.446,4.884a.456.456,0,0,1-.064.421,5,5,0,0,0-.654,1.482,5.566,5.566,0,0,0,.368,3.917c.014.025.105.161.249.368a23.882,23.882,0,0,0,2.709,3.363c.019.014.233.258.285.33a1.827,1.827,0,0,1,.6,1.31,2.071,2.071,0,0,1,.019,1.094,4.077,4.077,0,0,1-.573,1.3.015.015,0,0,1-.008.011,4.134,4.134,0,0,1-.474.59c-.313.327-.637.645-.958.964l-.05.08a3.743,3.743,0,0,1-.8.92c.166.125.335.249.507.371a.5.5,0,0,0,.053.03.524.524,0,0,0,.2.022c1.382,0,2.762,0,4.141,0,.047,0,.114.036.144-.039-.066-.058-.133-.114-.2-.163a3.919,3.919,0,0,0-2.574-.59l-.687.008c.064-.064.125-.122.18-.18.188-.188.349-.352.515-.51a5.358,5.358,0,0,0,1.59-2.7,15.6,15.6,0,0,0,.219-1.828c.008-.061-.014-.141.05-.174s.111.044.161.078c.421.3.828.623,1.266.9a2.686,2.686,0,0,0,3.025.033c.449-.274.859-.607,1.288-.911.061-.044.122-.139.2-.1s.042.144.05.222a15.8,15.8,0,0,0,.222,1.8,5.527,5.527,0,0,0,1.668,2.767c.139.13.271.269.421.421.055.058.116.119.18.183l-.69-.011a3.919,3.919,0,0,0-2.54.587,2.267,2.267,0,0,0-.241.2c.053.006.075.011.1.011,1.413,0,2.826,0,4.238.006a.392.392,0,0,0,.152-.028.568.568,0,0,0,.133-.072c.161-.114.319-.23.476-.349a1.941,1.941,0,0,1-.352-.432c-.03-.05-.061-.1-.094-.144s-.075-.091-.114-.136a.24.24,0,0,1-.072-.055c-.053-.055-.105-.108-.158-.161a14.306,14.306,0,0,1-1.3-1.355c-.069-.091-.136-.183-.2-.274,0,0,0-.006-.006-.006a3.241,3.241,0,0,1-.623-1.939,2.374,2.374,0,0,1,.191-.618,7.368,7.368,0,0,1,.853-1.637c.38-.46,2.837-3.538,2.862-3.6a7.086,7.086,0,0,0,.316-.875,5.429,5.429,0,0,0-.618-4.482.488.488,0,0,1-.058-.443Q366.9,385.921,367.609,383.486Zm-16.026,11.073a4.028,4.028,0,0,1-.864-2.416,4.242,4.242,0,0,0,1.263,1.557.125.125,0,0,0,.036.03,1.257,1.257,0,0,1,.74.814,2.469,2.469,0,0,1,.094.4,4.468,4.468,0,0,0,.4,1.1A3.464,3.464,0,0,1,351.583,394.559Zm12.66-1.585c.039-.452.072-.87.111-1.288a.179.179,0,0,1,.053-.127,4.746,4.746,0,0,0,1.108-1.158A2.988,2.988,0,0,1,364.243,392.974Zm.241-2.815c.042-.465.078-.931.127-1.393.047-.438.053-.438.474-.258.338.147.3.083.166.418a4.621,4.621,0,0,1-.618,1.13C364.6,390.1,364.586,390.165,364.484,390.16Zm.421-2.718a17.9,17.9,0,0,0-6.38-1.344,16,16,0,0,0-4.532.645,20.068,20.068,0,0,0-2.416.837c-.141.061-.2.055-.255-.105-.175-.557-.183-.562.4-.8a18.331,18.331,0,0,1,6.516-1.432,17.783,17.783,0,0,1,5.576.967c.562.186,1.111.4,1.657.623.141.058.169.119.122.269C365.428,387.647,365.437,387.65,364.9,387.442Zm-12.557,4.067a.158.158,0,0,1,.066.094c.044.44.08.881.122,1.344a2.986,2.986,0,0,1-1.244-2.56A4.652,4.652,0,0,0,352.348,391.509Zm-.87-2.875a2.507,2.507,0,0,1,.607-.26c.064.014.058.066.061.114q.075.806.147,1.612a3.732,3.732,0,0,1-.814-1.374A.147.147,0,0,1,351.478,388.633Zm9.167,9.485c-.363.263-.723.526-1.086.787a1.836,1.836,0,0,1-2.288.008,14.6,14.6,0,0,1-1.986-1.535,6.226,6.226,0,0,1-1.781-3.826c-.111-1.216-.208-2.432-.321-3.648a.292.292,0,0,1,.2-.341,4.233,4.233,0,0,1,3.369-.194.338.338,0,0,1,.258.294c.105.72.219.56-.5.673a6.536,6.536,0,0,1-2.238-.069c-.1-.019-.2-.033-.377-.061.4.4.629.875,1.1,1.116a1.378,1.378,0,0,0,1.676-.324c.139-.152.269-.313.452-.526a10.32,10.32,0,0,1-.3,3.416c.116-.036.208-.069.3-.1a.835.835,0,0,1,.812.125.764.764,0,0,0,.468.188h0c.028,0,.055,0,.086-.006a.537.537,0,0,0,.244-.111,1.059,1.059,0,0,1,1.211-.094.8.8,0,0,0-.947-.787,2.146,2.146,0,0,0-.316.114.787.787,0,0,1-.6-.014.178.178,0,0,1-.133-.23,11.086,11.086,0,0,0,.064-2.792,9.136,9.136,0,0,0-.247-1.219.4.4,0,0,0-.241-.247,5.034,5.034,0,0,0-2.382-.515,4.954,4.954,0,0,0-1.881.416c-.139.061-.183.047-.2-.119-.058-.5-.066-.5.418-.651a15.927,15.927,0,0,1,5.053-.845,16.625,16.625,0,0,1,5.061.931c.13.044.163.1.15.241-.055.507-.047.5-.526.357a4.847,4.847,0,0,0-2.122-.249,2.593,2.593,0,0,0-1.814,1.227,6.166,6.166,0,0,1,2.128-.36,5.253,5.253,0,0,1,2.044.44c.1.047.163.089.15.227-.119,1.288-.2,2.579-.346,3.862-.006.039-.008.078-.017.114A6.128,6.128,0,0,1,360.644,398.118Zm2.867-2.006a5.183,5.183,0,0,0,.463-1.324,1.252,1.252,0,0,1,.679-.967,2.925,2.925,0,0,0,.371-.266,3.892,3.892,0,0,0,1-1.266c.022-.039.025-.094.078-.111a3.657,3.657,0,0,1-.249,1.252A5.146,5.146,0,0,1,363.511,396.113Zm2.468-10.3c-.053.188-.125.191-.285.125a20.357,20.357,0,0,0-5.546-1.5,16.3,16.3,0,0,0-6.045.482,21.724,21.724,0,0,0-3.008,1.019c-.044.019-.089.036-.114.047-.105.019-.105-.055-.119-.1-.166-.548-.33-1.1-.488-1.651-.058-.2.08-.116.161-.094.6.166,1.2.324,1.8.5.191.058.269.042.335-.169.316-1.006.657-2,.975-3,.064-.2.125-.2.288-.094.742.482,1.5.945,2.238,1.429.147.1.2.069.283-.069.607-1.019,1.224-2.036,1.826-3.058.119-.2.163-.163.263.006.6,1.017,1.216,2.025,1.817,3.039.083.144.136.186.3.08.729-.477,1.465-.936,2.2-1.4.241-.152.244-.152.335.127.324.983.651,1.967.961,2.956.061.194.13.222.321.163.593-.18,1.194-.338,1.8-.5.055-.014.125-.072.175-.008.039.044-.006.105-.022.158C366.271,384.8,366.115,385.306,365.98,385.816Z" transform="translate(-349.174 -378.044)"/><path class="a" d="M389.738,422.02a5.707,5.707,0,0,1-.856.981,1.365,1.365,0,0,1-1.69-.039,5.619,5.619,0,0,1-.792-.931A8.361,8.361,0,0,0,389.738,422.02Z" transform="translate(-376.088 -409.838)"/><path class="a" d="M379.452,441.374c-.255,0-.452.011-.648,0a2.738,2.738,0,0,0-1.111.089.24.24,0,0,1-.163.011,5.065,5.065,0,0,0-1.659-.091h-.18a3.256,3.256,0,0,1,1.272-.74.5.5,0,0,1,.385.1.378.378,0,0,0,.446.006.625.625,0,0,1,.637-.03A3.93,3.93,0,0,1,379.452,441.374Z" transform="translate(-368.345 -423.293)"/><path class="a" d="M381.249,445.391a.862.862,0,0,1-1.529-.011A2.111,2.111,0,0,0,381.249,445.391Z" transform="translate(-371.258 -426.727)"/><path class="a" d="M380.921,390.559c-.152.183-.33.349-.5.518-.036.036-.083.108-.136.05-.294-.327-.7-.568-.778-1.058a.924.924,0,0,1,.083-.6c.23-.427.474-.842.734-1.3a12.29,12.29,0,0,1,.784,1.438A.934.934,0,0,1,380.921,390.559Z" transform="translate(-371.093 -385.358)"/><path class="a" d="M395.016,395.261c-.427.161-.427.161-.634-.247a.774.774,0,0,1,.263-1.067c.224-.158.452-.316.7-.488.075.327.158.615.2.911A.742.742,0,0,1,395.016,395.261Z" transform="translate(-381.778 -389.189)"/><path class="a" d="M367.4,394.724a1.7,1.7,0,0,1-.288.72c-.025.053-.064.053-.119.044a.906.906,0,0,1-.828-1.227c.042-.186.091-.368.13-.557.019-.1.042-.15.147-.072.23.169.474.324.7.5A.715.715,0,0,1,367.4,394.724Z" transform="translate(-361.43 -389.287)"/></g><path class="a" d="M342.615,387.32c-.169.061-.338.119-.51.172l.69.011C342.731,387.439,342.67,387.378,342.615,387.32ZM337.274,355a17.314,17.314,0,0,0-6.563,33.337h0a17.315,17.315,0,0,0,23.7-13.6A17.319,17.319,0,0,0,337.274,355Zm6.358,31.915c-.332.147-.673.283-1.017.4-.169.061-.338.119-.51.172a15.749,15.749,0,0,1-2.54.587,16.015,16.015,0,0,1-2.291.163,15.845,15.845,0,0,1-2.249-.158,15.578,15.578,0,0,1-2.574-.59c-.172-.053-.341-.108-.507-.172-.327-.114-.648-.241-.964-.38a15.991,15.991,0,0,1-8.746-9.388,15.928,15.928,0,1,1,30.968-5.241,15.9,15.9,0,0,1-9.571,14.6Z" transform="translate(3960.786 5977.551)"/><path class="a" d="M360.037,380.914c0,.407-.025.814-.044,1.219-.055.4-.083.812-.158,1.211-.058.335-.13.665-.213.995a14.347,14.347,0,0,1-1.435,3.568,13.974,13.974,0,0,1-7.222,6.083l-.089.033-.341,0,.341-.008.083-.033a13.968,13.968,0,0,0,8.491-9.607h0c.086-.349.161-.7.222-1.061.072-.4.1-.8.152-1.2.014-.4.039-.8.036-1.2l-.064-1.205c-.042-.4-.119-.792-.177-1.191a13.953,13.953,0,0,0-4.828-8.106,13.74,13.74,0,0,0-22.267,8.507,13.585,13.585,0,0,0,.928,7.518,13.284,13.284,0,0,0,.889,1.748A14.006,14.006,0,0,0,341.3,394c.139.053.277.1.416.152h0l.344,0-.344.008h0c-.141-.047-.283-.094-.424-.147a14.084,14.084,0,0,1-7.067-5.748,13.564,13.564,0,0,1-.936-1.831h0a13.934,13.934,0,0,1,.615-12.142,13.857,13.857,0,0,1,21.037-4.056,14.182,14.182,0,0,1,4.864,8.252c.055.4.13.8.172,1.208Z" transform="translate(3951.954 5968.849)"/><g transform="translate(4267.713 6356.913)"><path class="a" d="M278.466,449.1a1.368,1.368,0,0,1-.856.551c-.252.042-.385-.036-.385-.3a1.445,1.445,0,0,1,.6-1.249,3.842,3.842,0,0,1,1.247-.537c.2-.058.2.028.194.188a7.324,7.324,0,0,1-.186,1.274,1.516,1.516,0,0,1-1.438,1.18,10.969,10.969,0,0,1-1.945-.28,2.2,2.2,0,0,0-1.875.612.84.84,0,0,0-.064,1.252,1.613,1.613,0,0,0,1.787.5c.748-.2,1.407-.623,2.15-.834a5.4,5.4,0,0,1,1.3-.23l-1.4.5a2.518,2.518,0,0,0-1.909,2.407,1.447,1.447,0,0,1-.529,1.111,2.693,2.693,0,0,0,2.28-1.961c.036-.141.05-.33.233-.36s.269.111.352.241.188.283.344.263c.2-.025.175-.252.241-.393.05-.108-.022-.3.133-.327s.191.172.269.277c.127.174.141.524.385.5s.2-.371.291-.568c.05-.1.058-.244.188-.252.1-.006.144.122.2.205.136.188.127.548.38.557.213.008.26-.338.421-.5a2.512,2.512,0,0,1,.7-.587,1.561,1.561,0,0,1-.089.679,4.492,4.492,0,0,0,.72,3.388,1.089,1.089,0,0,0,1.488.521.852.852,0,0,1,1.114.438c.1.188.147.355-.18.366-.355.014-.7.061-1.061.047a2.831,2.831,0,0,1-2.15-1.446,3.764,3.764,0,0,1-.67-1.549.609.609,0,0,0-.82-.3c-.089.069-.019.139-.008.2a1.168,1.168,0,0,1-.587,1.355,1.3,1.3,0,0,0-.238.188c-.136.136-.283.3-.158.493s.294.014.429-.039a.711.711,0,0,1,.931.54c.03.158-.039.2-.18.2-.366,0-.734.03-1.1.017a.913.913,0,0,1-.806-1.41.864.864,0,0,0-.493-1.169.194.194,0,0,0-.241.036,5.222,5.222,0,0,1-2.349,1.244.667.667,0,0,0-.5.474c-.064.247,0,.374.266.355a2.748,2.748,0,0,0,.335-.061.591.591,0,0,1,.731.479c.064.3-.136.429-.371.471a3.86,3.86,0,0,1-1.582-.08.528.528,0,0,1-.366-.449,1.7,1.7,0,0,1,.49-1.837,2.777,2.777,0,0,0,1.069-2.042c.014-.163,0-.222-.183-.224a2.548,2.548,0,0,1-1.28-.421,1.675,1.675,0,0,1-.82-1.637,1.551,1.551,0,0,1,.981-1.335,3.386,3.386,0,0,1,2.366-.2c.366.091.734.183,1.108.238A.912.912,0,0,0,278.466,449.1Z" transform="translate(-272.913 -446.269)"/><path class="a" d="M308.277,445.952a2.982,2.982,0,0,0,1.31.476c.13,0,.141.078.111.211a.409.409,0,0,0,.3.532c.288.066.474-.15.568-.4.047-.127.042-.269.183-.349.1-.058.047-.13-.017-.177-.319-.233-.579-.565-1.053-.512a1.029,1.029,0,0,1-.715-.269,1.06,1.06,0,0,1,.958.033,1.127,1.127,0,0,0-1.443-.7.94.94,0,0,0-.488,1.349,4.81,4.81,0,0,0,.873,1.233,15.116,15.116,0,0,1,1.213,1.507,2.77,2.77,0,0,1,.5,1.255,1.829,1.829,0,0,1-1.463,1.97c.1-.1.147-.161.2-.213a1.868,1.868,0,0,0,.3-2.537,13.56,13.56,0,0,0-1.5-1.806,4.521,4.521,0,0,1-.986-1.513,1.579,1.579,0,0,1,.754-2,1.62,1.62,0,0,1,2.089.615.916.916,0,0,1,.15.26,1.8,1.8,0,0,0,1.036,1.166c.341.191.355.352.105.659a1.959,1.959,0,0,1-.319.324.882.882,0,0,0-.457.693c0,.094-.116.188-.186.277-.127.161-.23.213-.4,0-.352-.446-.745-.862-1.114-1.294A2.42,2.42,0,0,1,308.277,445.952Z" transform="translate(-297.571 -443.62)"/><path class="a" d="M304.936,451.337a1.958,1.958,0,0,1,.083-.266,1.637,1.637,0,0,0-.452-2.08,9.9,9.9,0,0,1-1.817-2.128,3.524,3.524,0,0,1-.576-2.374,1.752,1.752,0,0,1,2.047-1.54c-.169.058-.271.091-.371.127a1.629,1.629,0,0,0-1.1,1.953,5.33,5.33,0,0,0,1.568,2.626,12.208,12.208,0,0,1,1.033,1.108A1.624,1.624,0,0,1,304.936,451.337Z" transform="translate(-294.045 -442.941)"/><path class="a" d="M300.025,452.076c-1.773-.753-2.684-3.3-1.554-4.166C298.565,450.143,298.565,450.143,300.025,452.076Z" transform="translate(-291.031 -446.533)"/><path class="a" d="M308.515,466.41c.479.385.573.64.421,1.155a3.3,3.3,0,0,1-.349.837c-.116.186-.235.18-.332-.008a.893.893,0,0,1-.125-.355A2.979,2.979,0,0,1,308.515,466.41Z" transform="translate(-298.372 -459.909)"/></g><g transform="translate(4314.679 6356.641)"><path class="a" d="M455.678,448.123a1.368,1.368,0,0,0,.856.551c.252.042.385-.036.385-.3a1.445,1.445,0,0,0-.6-1.249,3.842,3.842,0,0,0-1.247-.537c-.2-.058-.205.028-.194.188a7.324,7.324,0,0,0,.186,1.274,1.516,1.516,0,0,0,1.438,1.18,10.968,10.968,0,0,0,1.945-.28,2.2,2.2,0,0,1,1.875.612.84.84,0,0,1,.064,1.252,1.612,1.612,0,0,1-1.787.5c-.748-.2-1.407-.623-2.15-.834a5.4,5.4,0,0,0-1.3-.23l1.4.5a2.518,2.518,0,0,1,1.909,2.407,1.447,1.447,0,0,0,.529,1.111,2.693,2.693,0,0,1-2.28-1.961c-.036-.141-.05-.33-.233-.36s-.269.111-.352.241-.188.283-.344.263c-.2-.025-.174-.252-.241-.393-.05-.108.022-.3-.133-.327s-.191.172-.269.277c-.127.175-.141.524-.385.5s-.2-.371-.291-.568c-.05-.1-.058-.244-.188-.252-.1-.006-.144.122-.205.2-.136.188-.127.549-.38.557-.213.008-.26-.338-.421-.5a2.509,2.509,0,0,0-.7-.587,1.561,1.561,0,0,0,.089.679,4.492,4.492,0,0,1-.72,3.388,1.089,1.089,0,0,1-1.488.521.852.852,0,0,0-1.114.438c-.1.188-.147.355.18.366.355.014.7.061,1.061.047a2.831,2.831,0,0,0,2.15-1.446,3.765,3.765,0,0,0,.67-1.549.609.609,0,0,1,.82-.3c.089.069.019.138.008.2a1.168,1.168,0,0,0,.587,1.355,1.3,1.3,0,0,1,.238.188c.136.136.283.3.158.493s-.294.014-.429-.039a.711.711,0,0,0-.931.54c-.03.158.039.2.18.2.366,0,.734.03,1.1.017a.913.913,0,0,0,.806-1.41.864.864,0,0,1,.493-1.169.194.194,0,0,1,.241.036,5.222,5.222,0,0,0,2.349,1.244.667.667,0,0,1,.5.474c.064.247,0,.374-.266.355a2.742,2.742,0,0,1-.335-.061.591.591,0,0,0-.731.479c-.064.3.136.429.371.471a3.859,3.859,0,0,0,1.582-.08.528.528,0,0,0,.366-.449,1.7,1.7,0,0,0-.49-1.837,2.777,2.777,0,0,1-1.069-2.042c-.014-.163,0-.222.183-.224a2.548,2.548,0,0,0,1.28-.421,1.676,1.676,0,0,0,.82-1.637,1.551,1.551,0,0,0-.981-1.335,3.386,3.386,0,0,0-2.366-.2c-.366.091-.734.183-1.108.238A.912.912,0,0,1,455.678,448.123Z" transform="translate(-447.38 -445.289)"/><path class="a" d="M445.6,444.972a2.982,2.982,0,0,1-1.31.476c-.13,0-.141.078-.111.211a.409.409,0,0,1-.3.532c-.288.066-.474-.15-.568-.4-.047-.127-.042-.269-.183-.349-.1-.058-.047-.13.017-.177.319-.233.579-.565,1.053-.512a1.029,1.029,0,0,0,.715-.269,1.06,1.06,0,0,0-.958.033,1.127,1.127,0,0,1,1.443-.7.94.94,0,0,1,.488,1.349,4.809,4.809,0,0,1-.873,1.233,15.117,15.117,0,0,0-1.213,1.507,2.77,2.77,0,0,0-.5,1.255,1.828,1.828,0,0,0,1.463,1.97c-.1-.1-.147-.161-.2-.213a1.868,1.868,0,0,1-.3-2.538,13.563,13.563,0,0,1,1.5-1.806,4.521,4.521,0,0,0,.986-1.513,1.579,1.579,0,0,0-.753-2,1.62,1.62,0,0,0-2.089.615.919.919,0,0,0-.15.26,1.8,1.8,0,0,1-1.036,1.166c-.341.191-.355.352-.105.659a1.958,1.958,0,0,0,.319.324.882.882,0,0,1,.457.693c0,.094.116.188.186.277.127.161.23.213.4,0,.352-.446.745-.862,1.114-1.294A2.512,2.512,0,0,0,445.6,444.972Z" transform="translate(-442.453 -442.64)"/><path class="a" d="M450.863,450.357a1.961,1.961,0,0,0-.083-.266,1.637,1.637,0,0,1,.452-2.08,9.9,9.9,0,0,0,1.817-2.128,3.524,3.524,0,0,0,.576-2.374,1.752,1.752,0,0,0-2.047-1.54c.169.058.271.091.371.127a1.629,1.629,0,0,1,1.1,1.953,5.33,5.33,0,0,1-1.568,2.626,12.2,12.2,0,0,0-1.033,1.108A1.625,1.625,0,0,0,450.863,450.357Z" transform="translate(-447.902 -441.961)"/><path class="a" d="M459.99,451.1c1.773-.753,2.684-3.3,1.554-4.166C461.45,449.163,461.45,449.163,459.99,451.1Z" transform="translate(-455.132 -445.553)"/><path class="a" d="M454.576,465.43c-.479.385-.573.64-.421,1.155a3.3,3.3,0,0,0,.349.837c.116.186.235.18.332-.008a.892.892,0,0,0,.125-.355A3,3,0,0,0,454.576,465.43Z" transform="translate(-450.865 -458.928)"/></g><g transform="translate(4311.241 6370.567)"><path class="a" d="M430.04,493.092a.862.862,0,1,1,.862.862A.861.861,0,0,1,430.04,493.092Z" transform="translate(-430.04 -492.23)"/></g><g transform="translate(4283.386 6370.567)"><path class="a" d="M329.49,493.092a.862.862,0,1,1,.862.862A.861.861,0,0,1,329.49,493.092Z" transform="translate(-329.49 -492.23)"/></g><g transform="translate(4313.786 6371.248)"><rect class="a" width="24.309" height="0.499" transform="translate(0 0)"/></g><g transform="translate(4258.022 6371.248)"><rect class="a" width="24.309" height="0.499" transform="translate(0 0)"/></g><g transform="translate(4290.649 6369.966)"><path class="a" d="M355.779,490.559l-.069-.017c.064-.169.122-.33.172-.482a.536.536,0,0,0,.072.058.283.283,0,0,0,.089.022q.129.017.59.017h1.028c.025,0,.108,0,.247,0s.219,0,.238,0a.341.341,0,0,0,.114-.011.172.172,0,0,0,.061-.047.153.153,0,0,0,.053.05,2.276,2.276,0,0,0-.111.416l-.089.011q.008-.066.017-.183a.436.436,0,0,0-.183-.078,1.961,1.961,0,0,0-.4-.03c-.136,0-.224,0-.269,0a.172.172,0,0,0-.08.017c-.011.008-.017.028-.019.058l-.011.271c0,.044,0,.163-.011.357,0,.05,0,.183,0,.4s0,.4,0,.565c0,.2,0,.346.006.427a.579.579,0,0,0,.036.188.146.146,0,0,0,.086.086,1,1,0,0,0,.2.039q.091.008.091.025a.126.126,0,0,1-.006.047.652.652,0,0,1-.08,0c-.083-.006-.155-.008-.216-.011-.091-.008-.163-.011-.219-.011a2.773,2.773,0,0,0-.432.036c-.086.014-.133.022-.141.022a.065.065,0,0,1-.044-.014.149.149,0,0,1-.028-.053c.017-.006.058-.017.127-.033a1.623,1.623,0,0,0,.2-.058.133.133,0,0,0,.078-.064.326.326,0,0,0,.017-.122,1.86,1.86,0,0,1,.017-.23c0,.008,0-.072,0-.241s.006-.288.006-.36,0-.155,0-.255c0-.288,0-.5,0-.621s-.006-.222-.014-.288a.521.521,0,0,0-.033-.161q-.175-.017-.382-.017c-.147,0-.26.005-.341.014a.617.617,0,0,0-.186.047.27.27,0,0,0-.094.072A.719.719,0,0,0,355.779,490.559Z" transform="translate(-355.71 -490.06)"/><path class="a" d="M377.8,492.868l-.028-.078a.422.422,0,0,0,.263-.086,1.594,1.594,0,0,0,.055-.449c.014-.266.019-.5.019-.693l0-.67a2.639,2.639,0,0,0-.019-.393.215.215,0,0,0-.08-.158.377.377,0,0,0-.194-.044l.006-.066a1.177,1.177,0,0,1,.2-.019l.211.008c.091.008.163.011.216.011l.294,0a.625.625,0,0,0,0,.072l-.108.017a.526.526,0,0,0-.139.033.118.118,0,0,0-.053.083,1.964,1.964,0,0,0-.039.252,3.929,3.929,0,0,0-.019.432c0,.139,0,.247,0,.324h.958c.366,0,.593,0,.679,0a.98.98,0,0,0,.188-.014l.006-.427c0-.233,0-.377-.008-.438a.378.378,0,0,0-.03-.136.139.139,0,0,0-.072-.089,1.056,1.056,0,0,0-.216-.058l.011-.078c.061.008.125.017.186.022a2.616,2.616,0,0,0,.266.011l.211-.008.205-.008.008.058c-.019.006-.033.008-.039.011a.33.33,0,0,0-.125.053.179.179,0,0,0-.061.1.674.674,0,0,0-.025.158c0,.061-.008.205-.014.435l-.019.936a5.244,5.244,0,0,0,.008.554.351.351,0,0,0,.078.219.381.381,0,0,0,.2.066l0,.061a1.5,1.5,0,0,0-.2-.025c-.044,0-.1,0-.172,0l-.244.008c-.111.008-.194.011-.255.011l-.008-.072a.426.426,0,0,0,.194-.055.2.2,0,0,0,.075-.125,2.259,2.259,0,0,0,.025-.294l.011-.46,0-.266-.224-.011-1.158-.008-.44.006c-.008.158-.011.393-.011.709a1.525,1.525,0,0,0,.025.366.133.133,0,0,0,.036.064.227.227,0,0,0,.083.047,1.437,1.437,0,0,0,.18.047l0,.064c-.028,0-.078-.006-.15-.011s-.139-.011-.205-.014-.125-.006-.177-.006Q378.047,492.847,377.8,492.868Z" transform="translate(-371.659 -490.161)"/><path class="a" d="M403.483,492.283h.064a2.711,2.711,0,0,1-.072.349,1.541,1.541,0,0,1-.1.266c-.044,0-.105-.008-.183-.008s-.186,0-.324,0c-.083,0-.175,0-.269,0l-.125,0c-.089,0-.191,0-.307,0s-.258.006-.424.011l-.363.014.006-.069c.042-.008.086-.019.127-.03a.223.223,0,0,0,.089-.039.1.1,0,0,0,.033-.05.667.667,0,0,0,.019-.105,2.679,2.679,0,0,0,.022-.28c.008-.136.014-.285.019-.454s.006-.271.006-.313l-.014-.645a3.352,3.352,0,0,0-.022-.4.2.2,0,0,0-.066-.139.526.526,0,0,0-.186-.061.285.285,0,0,1,0-.053h1.3c.147,0,.366-.006.662-.017-.008.116-.019.233-.036.349s-.039.175-.066.175-.05-.011-.05-.03,0-.033.008-.078.008-.069.008-.075c0-.1-.058-.161-.177-.188a1.891,1.891,0,0,0-.424-.042,4.9,4.9,0,0,0-.623.042,5.218,5.218,0,0,0-.036.565c0,.1,0,.216,0,.346s0,.191,0,.183c.033,0,.133,0,.3,0q.432,0,.59-.017a.357.357,0,0,0,.122-.025.136.136,0,0,0,.061-.072,1.3,1.3,0,0,0,.064-.177l.058.006v.377c0,.111,0,.238,0,.382h-.072a.511.511,0,0,0-.055-.26.262.262,0,0,0-.191-.094,4.152,4.152,0,0,0-.5-.019,3,3,0,0,0-.366.019l-.008.288a4.227,4.227,0,0,0,.036.814l.089.022c.033.008.066.014.1.019s.075.008.13.014.127.008.213.008a2.1,2.1,0,0,0,.5-.047.555.555,0,0,0,.277-.15A.868.868,0,0,0,403.483,492.283Z" transform="translate(-388.728 -490.197)"/></g><g transform="translate(4257.379 6376.345)"><path class="a" d="M239.535,514.06a.362.362,0,0,1,.224.091.59.59,0,0,1,.175.222l.028.064h.216l-.086-.817H235.61v.2l.061.028a.393.393,0,0,1,.244.4v4.169a.393.393,0,0,1-.244.4l-.061.028v.2h4.482l.083-.828h-.216l-.025.066a.554.554,0,0,1-.175.23.355.355,0,0,1-.224.091h-2.984V516.03H238a.346.346,0,0,1,.227.091.731.731,0,0,1,.186.23l.05.058h.169v-1.1l-.022-.105h-.169l-.028.061a.7.7,0,0,1-.183.238.346.346,0,0,1-.227.091h-1.452v-1.535h2.981Z" transform="translate(-235.61 -513.473)"/><path class="a" d="M259.422,518.3a.555.555,0,0,1-.175.23.356.356,0,0,1-.224.091h-2.981v-4.358a.393.393,0,0,1,.244-.4l.061-.028v-.2H255.1v.2l.061.028a.393.393,0,0,1,.244.4v4.169a.434.434,0,0,1-.069.238.389.389,0,0,1-.175.161l-.061.028v.2h4.482l.083-.828h-.216Z" transform="translate(-249.701 -513.48)"/><path class="a" d="M274.58,513.832l.061.028a.393.393,0,0,1,.244.4v4.169a.393.393,0,0,1-.244.4l-.061.028v.2h1.247v-.2l-.061-.028a.393.393,0,0,1-.244-.4v-4.169a.393.393,0,0,1,.244-.4l.061-.028v-.2H274.58Z" transform="translate(-263.785 -513.48)"/><path class="a" d="M282.12,514.444h.2l.028-.061a.554.554,0,0,1,.1-.152.565.565,0,0,1,.147-.119.285.285,0,0,1,.152-.044h3.427a7.447,7.447,0,0,0-1.618,2.274,6.247,6.247,0,0,1-.662,1.017,5.1,5.1,0,0,1-.632.679,3.9,3.9,0,0,1-.551.393,2.33,2.33,0,0,1-.368.191,1.169,1.169,0,0,1-.141.039l-.083.017v.38h5.133v-.723l-.022-.105h-.169l-.028.061a.7.7,0,0,1-.183.238.345.345,0,0,1-.227.091h-3.147a6.471,6.471,0,0,0,1.587-2.086,7.917,7.917,0,0,1,1.125-1.673,2.977,2.977,0,0,1,1-.767l.066-.025v-.438H282.12Z" transform="translate(-269.236 -513.48)"/><path class="a" d="M310.155,529.756l-.111-.166-.108.163a.764.764,0,0,1-.335.294l-.161.108.175.114a.756.756,0,0,1,.327.288l.108.161.111-.166a.781.781,0,0,1,.335-.294l.161-.108-.175-.116A.651.651,0,0,1,310.155,529.756Z" transform="translate(-288.988 -525.019)"/><path class="a" d="M307.636,516.605l-1.6-3.515h-.194l-1.51,3.136-.18.368a.856.856,0,0,1-.172.247.737.737,0,0,1-.191.15l-.025,0-.061.061v.18h1.205v-.2l-.061-.028a.487.487,0,0,1-.147-.1.186.186,0,0,1-.055-.08.163.163,0,0,1,.011-.169l.1-.194h2.094l.116.26a.193.193,0,0,1-.006.188l-.022.036a.311.311,0,0,1-.105.072l-.064.028v.2h1.321v-.2l-.061-.028A.845.845,0,0,1,307.636,516.605Zm-2.7-.532.917-1.828.812,1.828Z" transform="translate(-284.838 -513.09)"/><path class="a" d="M327.026,515.916a1.622,1.622,0,0,0-.418-.227,1.369,1.369,0,0,0,.335-.285,1,1,0,0,0,.255-.662,1.1,1.1,0,0,0-.319-.8,1.089,1.089,0,0,0-.792-.319H322.58v.2l.061.028a.389.389,0,0,1,.175.161.436.436,0,0,1,.069.241v4.169a.423.423,0,0,1-.069.233.394.394,0,0,1-.175.169l-.061.028v.2h3.5a1.559,1.559,0,0,0,.826-.23,1.648,1.648,0,0,0,.593-.632,1.781,1.781,0,0,0,.216-.859,1.756,1.756,0,0,0-.186-.8A1.685,1.685,0,0,0,327.026,515.916Zm-.712-.645a.817.817,0,0,1-.576.219h-2.216v-1.463h2.208a.841.841,0,0,1,.615.205.7.7,0,0,1,.2.521A.67.67,0,0,1,326.314,515.271Zm-2.792.659h2.211a1.419,1.419,0,0,1,.665.205,1.353,1.353,0,0,1,.474.488,1.3,1.3,0,0,1,.169.654,1.5,1.5,0,0,1-.158.693,1.156,1.156,0,0,1-.463.482,1.476,1.476,0,0,1-.745.18h-2.155v-2.7Z" transform="translate(-298.488 -513.473)"/><path class="a" d="M348.085,514.06a.362.362,0,0,1,.224.091.59.59,0,0,1,.175.222l.028.064h.216l-.086-.817H344.16v.2l.061.028a.393.393,0,0,1,.244.4v4.169a.393.393,0,0,1-.244.4l-.061.028v.2h4.482l.083-.828h-.216l-.025.066a.554.554,0,0,1-.175.23.361.361,0,0,1-.224.091H345.1V516.03h1.452a.346.346,0,0,1,.227.091.763.763,0,0,1,.186.23l.05.058h.169v-1.1l-.022-.105h-.169l-.028.061a.7.7,0,0,1-.183.238.346.346,0,0,1-.227.091H345.1v-1.535h2.981Z" transform="translate(-314.089 -513.473)"/><path class="a" d="M363.679,513.62l-.069.817h.213l.028-.064a.6.6,0,0,1,.172-.224.346.346,0,0,1,.227-.091h1.975v4.36a.392.392,0,0,1-.235.4l-.061.028v.2h1.247v-.2l-.061-.028a.393.393,0,0,1-.244-.4v-4.36h1.975a.314.314,0,0,1,.125.025.355.355,0,0,1,.111.069.789.789,0,0,1,.1.114.686.686,0,0,1,.075.116l.05.058h.177l-.069-.817h-5.737Z" transform="translate(-328.151 -513.473)"/><path class="a" d="M392.8,513.832l.061.028a.393.393,0,0,1,.244.4v2.116a7.673,7.673,0,0,1-2.169-.335,7.148,7.148,0,0,0-2.161-.238v-1.54a.393.393,0,0,1,.244-.4l.061-.028v-.2H387.83v.2l.061.028a.393.393,0,0,1,.244.4v4.169a.393.393,0,0,1-.244.4l-.061.028v.2h1.247v-.2l-.061-.028a.393.393,0,0,1-.244-.4v-2.2a6.845,6.845,0,0,1,2.064.241,7.781,7.781,0,0,0,2.266.344v1.615a.393.393,0,0,1-.244.4l-.061.028v.2h1.247v-.2l-.061-.028a.393.393,0,0,1-.244-.4v-4.172a.393.393,0,0,1,.244-.4l.061-.028v-.2H392.8Z" transform="translate(-345.662 -513.48)"/><path class="a" d="M428.245,513.868a1.861,1.861,0,0,0-.922-.238H424.53v.2l.061.028a.393.393,0,0,1,.244.4v4.169a.393.393,0,0,1-.244.4l-.061.028v.2h1.247v-.2l-.061-.028a.393.393,0,0,1-.244-.4V517.24h1.85a1.848,1.848,0,0,0,1.6-.9,1.782,1.782,0,0,0,0-1.809A1.83,1.83,0,0,0,428.245,513.868Zm-1.175.219h.022l.158.15V514.1h.006a1.909,1.909,0,0,1,.515.158,1.39,1.39,0,0,1,.537.485,1.3,1.3,0,0,1,.175.64v.08a1.324,1.324,0,0,1-.175.643,1.358,1.358,0,0,1-.535.485,1.944,1.944,0,0,1-.513.158,3.068,3.068,0,0,1-.366.019h-1.418v-2.7h1.493A.259.259,0,0,0,427.07,514.087Z" transform="translate(-372.195 -513.48)"/><path class="a" d="M448.041,514.27h0a2.275,2.275,0,0,0-.684-.463,2.209,2.209,0,0,0-.892-.177,2.143,2.143,0,0,0-.884.177,2.265,2.265,0,0,0-.679.457,2.149,2.149,0,0,0-.438.634,1.8,1.8,0,0,0-.155.72,1.625,1.625,0,0,0,.166.712,2.211,2.211,0,0,0,.452.634,2.285,2.285,0,0,0,.681.452,2.141,2.141,0,0,0,.85.172,2.189,2.189,0,0,0,.864-.172,2.1,2.1,0,0,0,.679-.449,2.161,2.161,0,0,0,.446-.634,1.7,1.7,0,0,0,.161-.72,1.854,1.854,0,0,0-.147-.715A2.055,2.055,0,0,0,448.041,514.27Zm-.105,1.338a2.04,2.04,0,0,1-.075.524,1.443,1.443,0,0,1-.244.5,1.4,1.4,0,0,1-.454.377,1.483,1.483,0,0,1-.7.15,1.372,1.372,0,0,1-1.161-.546,1.552,1.552,0,0,1-.252-.507,1.905,1.905,0,0,1-.075-.493,1.74,1.74,0,0,1,.355-1.033,1.379,1.379,0,0,1,.46-.377,1.465,1.465,0,0,1,.676-.147,1.394,1.394,0,0,1,.67.15,1.468,1.468,0,0,1,.457.377,1.546,1.546,0,0,1,.26.5A1.9,1.9,0,0,1,447.936,515.608Z" transform="translate(-386.496 -513.48)"/><path class="a" d="M450.495,529.566l-.111-.166-.111.166a.747.747,0,0,1-.335.3l-.208.139.2.066.017,0a.794.794,0,0,1,.33.3l.108.161.111-.163a.8.8,0,0,1,.31-.291l.235-.078-.222-.144A.685.685,0,0,1,450.495,529.566Z" transform="translate(-390.414 -524.882)"/><path class="a" d="M467.033,518.463l-1.008-1.272a1.627,1.627,0,0,0,.587-.213,1.72,1.72,0,0,0,.681-.654,1.792,1.792,0,0,0,0-1.814,1.847,1.847,0,0,0-1.6-.9H462.9v.2l.061.028a.393.393,0,0,1,.244.4v4.169a.393.393,0,0,1-.244.4l-.061.028v.2h1.247v-.2l-.061-.028a.389.389,0,0,1-.174-.161.436.436,0,0,1-.069-.241v-1.188h1.391l1.08,1.366a1.1,1.1,0,0,0,.911.452h.512v-.283h-.105A.69.69,0,0,1,467.033,518.463Zm-1.593-4.391h.022l.158.15v-.133h.005a1.908,1.908,0,0,1,.515.158,1.389,1.389,0,0,1,.537.485,1.3,1.3,0,0,1,.175.64v.08a1.323,1.323,0,0,1-.175.643,1.358,1.358,0,0,1-.535.485,2,2,0,0,1-.5.158l-.2.022h-1.6v-2.7h1.493A.472.472,0,0,0,465.44,514.073Z" transform="translate(-399.936 -513.466)"/><path class="a" d="M487.4,517.629a1.32,1.32,0,0,1-.335.343,2.276,2.276,0,0,1-.637.316,3.012,3.012,0,0,1-.914.13,2.137,2.137,0,0,1-1.183-.319,2.044,2.044,0,0,1-.74-.859,2.861,2.861,0,0,1-.252-1.216,2.929,2.929,0,0,1,.252-1.222,2.058,2.058,0,0,1,.74-.87,2.1,2.1,0,0,1,1.183-.324,2.524,2.524,0,0,1,.922.161,2.807,2.807,0,0,1,.657.352,1.167,1.167,0,0,1,.294.283l.03.055h.238l-.011-.773-.05-.03a3.459,3.459,0,0,0-.856-.316,4.171,4.171,0,0,0-1.1-.161,3.253,3.253,0,0,0-1.626.382,2.618,2.618,0,0,0-1.028,1.028,3.107,3.107,0,0,0,0,2.862,2.583,2.583,0,0,0,1.028,1.028,3.283,3.283,0,0,0,1.626.382,4.341,4.341,0,0,0,1.091-.166,3.523,3.523,0,0,0,.875-.321l.047-.03v-.759h-.227Z" transform="translate(-414.208 -513.155)"/><path class="a" d="M499.878,513.86l.061-.028v-.2h-1.258v.2l.061.028a.393.393,0,0,1,.244.4v2.216a1.41,1.41,0,0,0-.13-.094,2.98,2.98,0,0,0-.576-.3,5.555,5.555,0,0,0-.845-.247,3.781,3.781,0,0,0-1.269-.033,6.47,6.47,0,0,0-1.5.377v-1.911a.393.393,0,0,1,.244-.4l.061-.028v-.2h-1.247v.2l.061.028a.393.393,0,0,1,.244.4v2.128a7.265,7.265,0,0,1-1.371.258,6.426,6.426,0,0,1-1.163.017,5.085,5.085,0,0,1-.864-.163,3.62,3.62,0,0,1-.521-.175,1.766,1.766,0,0,0-.2-.1l-.058-.025-.382.31.122.078c.058.036.139.08.241.13a4.357,4.357,0,0,0,.6.208,5.548,5.548,0,0,0,.936.186,6.145,6.145,0,0,0,1.252-.011,7.769,7.769,0,0,0,1.41-.266v1.6a.393.393,0,0,1-.244.4l-.061.028v.2h1.247v-.2l-.061-.028a.393.393,0,0,1-.244-.4v-1.8a.353.353,0,0,0,.047-.019,6.233,6.233,0,0,1,1.416-.363,3.546,3.546,0,0,1,1.136.019,4.722,4.722,0,0,1,.765.222,3.164,3.164,0,0,1,.5.258,1.743,1.743,0,0,1,.449.44v1.249a.393.393,0,0,1-.244.4l-.061.028v.2h1.258v-.2l-.061-.028a.393.393,0,0,1-.244-.4v-4.177A.4.4,0,0,1,499.878,513.86Z" transform="translate(-419.146 -513.48)"/></g><path class="b" d="M360.037,380.914c0,.407-.025.814-.044,1.219-.055.4-.083.812-.158,1.211-.058.335-.13.665-.213.995-.055.011-.111.025-.169.039.086-.349.161-.7.222-1.061.072-.4.1-.8.152-1.2.014-.4.039-.8.036-1.2l-.064-1.205c-.042-.4-.119-.792-.177-1.191a13.953,13.953,0,0,0-4.828-8.106,13.74,13.74,0,0,0-22.267,8.507,13.585,13.585,0,0,0,.928,7.518l-.163-.008h0a13.934,13.934,0,0,1,.615-12.142,13.857,13.857,0,0,1,21.037-4.056,14.182,14.182,0,0,1,4.864,8.252c.055.4.13.8.172,1.208Z" transform="translate(3951.954 5968.849)"/><path class="b" d="M367.609,383.486c.116-.393-.089-.609-.488-.518l-.114.03c-.654.183-1.308.357-1.959.551-.183.055-.247.017-.3-.158-.319-.995-.648-1.986-.975-2.978-.125-.382-.324-.457-.665-.241-.715.452-1.432.9-2.141,1.363-.144.094-.211.094-.307-.066-.612-1.039-1.235-2.067-1.853-3.1-.258-.429-.537-.432-.8,0-.618,1.033-1.241,2.064-1.853,3.1-.091.152-.152.172-.307.072-.706-.463-1.424-.911-2.139-1.363-.344-.213-.543-.141-.668.235-.327.995-.657,1.983-.975,2.978-.055.172-.111.222-.3.163-.687-.2-1.38-.393-2.072-.579-.4-.105-.607.122-.49.512.482,1.629.958,3.258,1.446,4.884a.456.456,0,0,1-.064.421,5,5,0,0,0-.654,1.482,5.566,5.566,0,0,0,.368,3.917c.014.025.105.161.249.368q.511,0,1.031,0a4.028,4.028,0,0,1-.864-2.416,4.243,4.243,0,0,0,1.263,1.557.124.124,0,0,0,.036.03,1.257,1.257,0,0,1,.74.814c.3,0,.607-.011.911-.019a6.142,6.142,0,0,1-.166-.972c-.111-1.216-.208-2.432-.321-3.648a.292.292,0,0,1,.2-.341,4.233,4.233,0,0,1,3.369-.194.338.338,0,0,1,.258.294c.105.72.219.56-.5.673a6.535,6.535,0,0,1-2.238-.069c-.1-.019-.2-.033-.377-.061.4.4.629.875,1.1,1.116a1.378,1.378,0,0,0,1.676-.324c.139-.152.269-.313.452-.526a10.321,10.321,0,0,1-.3,3.416c.116-.036.208-.069.3-.1a.835.835,0,0,1,.812.125.764.764,0,0,0,.468.188h0c.028,0,.055,0,.086-.006a.537.537,0,0,0,.244-.111,1.059,1.059,0,0,1,1.211-.094.8.8,0,0,0-.947-.787,2.148,2.148,0,0,0-.316.114.787.787,0,0,1-.6-.014.178.178,0,0,1-.133-.23,11.086,11.086,0,0,0,.064-2.792,9.132,9.132,0,0,0-.247-1.219.4.4,0,0,0-.241-.247,5.034,5.034,0,0,0-2.382-.515,4.953,4.953,0,0,0-1.881.416c-.139.061-.183.047-.2-.119-.058-.5-.066-.5.418-.651a15.927,15.927,0,0,1,5.053-.845,16.624,16.624,0,0,1,5.061.931c.13.044.163.1.15.241-.055.507-.047.5-.526.357a4.847,4.847,0,0,0-2.122-.249,2.593,2.593,0,0,0-1.814,1.227,6.167,6.167,0,0,1,2.128-.36,5.253,5.253,0,0,1,2.044.44c.1.047.163.089.15.227-.119,1.288-.2,2.579-.346,3.862-.006.039-.008.078-.017.114.6-.072,1.194-.152,1.781-.238a3.893,3.893,0,0,0,1-1.266c.022-.039.025-.094.078-.111a3.657,3.657,0,0,1-.249,1.252q.5-.075,1-.158a5.429,5.429,0,0,0-.618-4.482.488.488,0,0,1-.058-.443Q366.9,385.921,367.609,383.486Zm-16.316,6.9a4.652,4.652,0,0,0,1.055,1.122.158.158,0,0,1,.066.094c.044.44.08.881.122,1.344A2.986,2.986,0,0,1,351.292,390.387Zm.186-1.754a2.507,2.507,0,0,1,.607-.26c.064.014.058.066.061.114q.075.806.147,1.612a3.732,3.732,0,0,1-.814-1.374A.147.147,0,0,1,351.478,388.633Zm12.765,4.341c.039-.452.072-.87.111-1.288a.179.179,0,0,1,.053-.127,4.746,4.746,0,0,0,1.108-1.158A2.988,2.988,0,0,1,364.243,392.974Zm.241-2.815c.042-.465.078-.931.127-1.393.047-.438.053-.438.474-.258.338.147.3.083.166.418a4.621,4.621,0,0,1-.618,1.13C364.6,390.1,364.586,390.165,364.484,390.16ZM365.6,387.1c-.169.546-.161.548-.693.341a17.9,17.9,0,0,0-6.38-1.344,16,16,0,0,0-4.532.645,20.068,20.068,0,0,0-2.416.837c-.141.061-.2.055-.255-.105-.175-.557-.183-.562.4-.8a18.331,18.331,0,0,1,6.516-1.432,17.783,17.783,0,0,1,5.576.967c.562.186,1.111.4,1.657.623C365.617,386.891,365.645,386.952,365.6,387.1Zm.382-1.285c-.053.188-.125.191-.285.125a20.357,20.357,0,0,0-5.546-1.5,16.3,16.3,0,0,0-6.045.482,21.724,21.724,0,0,0-3.008,1.019c-.044.019-.089.036-.114.047-.105.019-.105-.055-.119-.1-.166-.548-.33-1.1-.488-1.651-.058-.2.08-.116.161-.094.6.166,1.2.324,1.8.5.191.058.269.042.335-.169.316-1.006.657-2,.975-3,.064-.2.125-.2.288-.094.742.482,1.5.945,2.238,1.429.147.1.2.069.283-.069.607-1.019,1.224-2.036,1.826-3.058.119-.2.163-.163.263.006.6,1.017,1.216,2.025,1.817,3.039.083.144.136.186.3.08.729-.477,1.465-.936,2.2-1.4.241-.152.244-.152.335.127.324.983.651,1.967.961,2.956.061.194.13.222.321.163.593-.18,1.194-.338,1.8-.5.055-.014.125-.072.175-.008.039.044-.006.105-.022.158C366.271,384.8,366.115,385.306,365.98,385.816Z" transform="translate(3939.665 5960.891)"/><path class="b" d="M367.4,394.724a1.7,1.7,0,0,1-.288.72c-.025.053-.064.053-.119.044a.906.906,0,0,1-.828-1.227c.042-.186.091-.368.13-.557.019-.1.042-.15.147-.072.23.169.474.324.7.5A.715.715,0,0,1,367.4,394.724Z" transform="translate(3927.409 5949.648)"/><path class="b" d="M380.921,390.559c-.152.183-.33.349-.5.518-.036.036-.083.108-.136.05-.294-.327-.7-.568-.778-1.058a.924.924,0,0,1,.083-.6c.23-.427.474-.842.734-1.3a12.29,12.29,0,0,1,.784,1.438A.934.934,0,0,1,380.921,390.559Z" transform="translate(3917.746 5953.577)"/><path class="b" d="M395.016,395.261c-.427.161-.427.161-.634-.247a.774.774,0,0,1,.263-1.067c.224-.158.452-.316.7-.488.075.327.158.615.2.911A.742.742,0,0,1,395.016,395.261Z" transform="translate(3907.061 5949.746)"/><path class="b" d="M389.738,422.02a5.707,5.707,0,0,1-.856.981,1.365,1.365,0,0,1-1.69-.039,5.619,5.619,0,0,1-.792-.931A8.361,8.361,0,0,0,389.738,422.02Z" transform="translate(3912.751 5929.097)"/><path class="b" d="M354.588,372.314a17.414,17.414,0,0,1-.169,2.418c-.479.133-.97.26-1.463.385a16.11,16.11,0,0,0,.247-2.8,15.929,15.929,0,1,0-30.968,5.241c-.51-.044-1.014-.1-1.513-.152a17.315,17.315,0,1,1,33.866-5.089Z" transform="translate(3960.786 5977.551)"/></g></svg>